<svg width="101" height="26" viewBox="0 0 101 26" fill="none" xmlns="http://www.w3.org/2000/svg">
<path d="M36.0652 10.0488H38.5882L40.0349 16.6294L41.5164 10.0488H44.1089L41.3428 19.1818H38.8081L37.3152 12.5235L35.799 19.1818H33.2065L30.533 10.0488H33.2065L34.6879 16.6072L36.0652 10.0488Z" fill="white"/>
<path d="M51.7113 10.228C52.371 10.5165 52.9266 10.9604 53.3548 11.5818C53.7483 12.1256 54.0029 12.7581 54.1186 13.4683C54.1881 13.89 54.2112 14.4892 54.1997 15.2771H47.2555C47.2902 16.1982 47.6258 16.8307 48.2508 17.208C48.6328 17.4411 49.0841 17.552 49.6281 17.552C50.1952 17.552 50.6581 17.4078 51.0169 17.1304C51.2137 16.975 51.3873 16.7752 51.5262 16.4978H54.0724C54.0029 17.0416 53.702 17.5853 53.1465 18.1513C52.29 19.0391 51.0979 19.4829 49.5586 19.4829C48.2855 19.4829 47.1745 19.1056 46.2023 18.3621C45.2301 17.6186 44.744 16.3979 44.744 14.7001C44.744 13.1132 45.1838 11.9036 46.0518 11.0602C46.9314 10.2169 48.0656 9.79517 49.4545 9.79517C50.2994 9.80626 51.0401 9.95053 51.7113 10.228ZM47.9846 12.292C47.6374 12.636 47.406 13.1132 47.3249 13.7013H51.6187C51.5725 13.0688 51.3526 12.5805 50.9591 12.2587C50.5655 11.9258 50.0679 11.7705 49.4776 11.7705C48.8295 11.7705 48.3318 11.948 47.9846 12.292Z" fill="white"/>
<path d="M57.3928 16.2644C57.4506 16.6861 57.5548 16.9857 57.74 17.1744C58.0525 17.4962 58.6196 17.6516 59.4644 17.6516C59.9621 17.6516 60.344 17.585 60.6334 17.4407C60.9227 17.2964 61.0732 17.0967 61.0732 16.8082C61.0732 16.5418 60.9575 16.331 60.726 16.1978C60.4945 16.0536 59.6265 15.8205 58.1219 15.4765C57.034 15.2213 56.2817 14.8995 55.8303 14.5111C55.3905 14.1338 55.1706 13.5789 55.1706 12.8687C55.1706 12.0253 55.5178 11.304 56.2122 10.6937C56.9067 10.0833 57.8789 9.78369 59.1288 9.78369C60.3209 9.78369 61.2931 10.0167 62.0454 10.4717C62.7977 10.9267 63.2259 11.7146 63.3416 12.8354H60.8533C60.8186 12.5247 60.726 12.2805 60.5871 12.103C60.3093 11.7812 59.8464 11.6147 59.1867 11.6147C58.6427 11.6147 58.2608 11.6924 58.0293 11.8589C57.7978 12.0253 57.6821 12.214 57.6821 12.4248C57.6821 12.7022 57.8094 12.902 58.0525 13.0241C58.2955 13.1572 59.1635 13.3681 60.6565 13.6899C61.6519 13.9118 62.3926 14.2558 62.8903 14.6997C63.3763 15.1547 63.6194 15.7318 63.6194 16.4198C63.6194 17.3297 63.2722 18.0621 62.5662 18.6392C61.8602 19.2163 60.7723 19.4937 59.3024 19.4937C57.7978 19.4937 56.6983 19.1941 55.9808 18.5837C55.2632 17.9734 54.9044 17.2077 54.9044 16.2644H57.3928V16.2644Z" fill="white"/>
<path d="M71.6286 10.228C72.2883 10.5165 72.8439 10.9604 73.2721 11.5818C73.6656 12.1256 73.9202 12.7581 74.0359 13.4683C74.1054 13.89 74.1285 14.4892 74.117 15.2771H67.1728C67.2075 16.1982 67.5431 16.8307 68.1681 17.208C68.5501 17.4411 69.0014 17.552 69.5454 17.552C70.1125 17.552 70.5754 17.4078 70.9342 17.1304C71.131 16.975 71.3046 16.7752 71.4435 16.4978H73.9897C73.9202 17.0416 73.6193 17.5853 73.0638 18.1513C72.2073 19.0391 71.0152 19.4829 69.4759 19.4829C68.2028 19.4829 67.0918 19.1056 66.1196 18.3621C65.1474 17.6186 64.6613 16.3979 64.6613 14.7001C64.6613 13.1132 65.1011 11.9036 65.9691 11.0602C66.8487 10.2169 67.9829 9.79517 69.3718 9.79517C70.2167 9.80626 70.9574 9.95053 71.6286 10.228ZM67.9019 12.292C67.5547 12.636 67.3232 13.1132 67.2422 13.7013H71.536C71.4898 13.0688 71.2699 12.5805 70.8763 12.2587C70.4828 11.9258 69.9852 11.7705 69.3949 11.7705C68.7468 11.7705 68.2491 11.948 67.9019 12.292Z" fill="white"/>
<path d="M80.3098 9.82983C80.3445 9.82983 80.4139 9.84093 80.5297 9.84093V12.2934C80.3676 12.2712 80.2287 12.2601 80.113 12.2601C79.9857 12.2601 79.8931 12.249 79.8121 12.249C78.8052 12.249 78.1339 12.5597 77.7983 13.1923C77.6015 13.5474 77.509 14.0911 77.509 14.8235V19.1958H74.9975V10.0518H77.3701V11.6498C77.752 11.0394 78.0876 10.6288 78.377 10.3958C78.8399 10.0185 79.4533 9.82983 80.194 9.82983C80.2403 9.82983 80.275 9.82983 80.3098 9.82983Z" fill="white"/>
<path d="M88.2167 10.0488H90.8902L87.4528 19.1818H84.8256L81.3998 10.0488H84.2007L86.1797 16.7848L88.2167 10.0488Z" fill="white"/>
<path d="M98.5088 10.228C99.1685 10.5165 99.7241 10.9604 100.152 11.5818C100.546 12.1256 100.8 12.7581 100.916 13.4683C100.986 13.89 101.009 14.4892 100.997 15.2771H94.053C94.0877 16.1982 94.4233 16.8307 95.0483 17.208C95.4303 17.4411 95.8816 17.552 96.4256 17.552C96.9927 17.552 97.4556 17.4078 97.8144 17.1304C98.0112 16.975 98.1848 16.7752 98.3237 16.4978H100.87C100.8 17.0416 100.5 17.5853 99.944 18.1513C99.0875 19.0391 97.8954 19.4829 96.3561 19.4829C95.083 19.4829 93.972 19.1056 92.9998 18.3621C92.0276 17.6186 91.5415 16.3979 91.5415 14.7001C91.5415 13.1132 91.9813 11.9036 92.8493 11.0602C93.7289 10.2169 94.8631 9.79517 96.252 9.79517C97.0969 9.80626 97.8491 9.95053 98.5088 10.228ZM94.7821 12.292C94.4349 12.636 94.2034 13.1132 94.1224 13.7013H98.4163C98.37 13.0688 98.1501 12.5805 97.7566 12.2587C97.3631 11.9258 96.8654 11.7705 96.2751 11.7705C95.627 11.7705 95.1409 11.948 94.7821 12.292Z" fill="white"/>
<path d="M23.4084 12.2984L19.0451 17.6139C18.7211 18.0023 18.1192 18.0023 17.7952 17.6139L13.9296 12.8976C13.7213 12.6424 13.4203 12.4981 13.0847 12.4981C12.7606 12.4981 12.4597 12.6313 12.2398 12.8644C12.2283 12.8754 12.2167 12.8865 12.2051 12.8976L8.33952 17.6028C8.01546 17.9912 7.41363 17.9912 7.08957 17.6028L2.72632 12.2873L4.60124 10.0124L7.72612 6.20607L12.6565 0.191426C12.8648 -0.0638085 13.2699 -0.0638085 13.4898 0.191426L18.4201 6.20607L21.545 10.0124L23.4084 12.2984Z" fill="white"/>
<path d="M26.0378 16.1254L21.5356 21.6074L18.839 24.8922C18.6306 25.1474 18.2256 25.1474 18.0057 24.8922L15.309 21.6074L13.492 19.388C13.2836 19.1328 12.867 19.1328 12.6586 19.388L10.8416 21.6074L8.14494 24.8922C7.93661 25.1474 7.51996 25.1474 7.31164 24.8922L4.61498 21.6074L0.112843 16.1254C-0.0376143 15.9368 -0.0376143 15.6815 0.112843 15.4929L1.11975 14.2722L2.02249 13.1736L6.88341 19.0884L6.89499 19.0995C7.10331 19.3436 7.4158 19.4879 7.75143 19.4768C8.08707 19.4768 8.38798 19.3325 8.59631 19.0773L12.4619 14.3721C12.786 13.9837 13.3878 13.9837 13.7118 14.3721L17.589 19.0884L17.6006 19.0995C17.8089 19.3436 18.1098 19.4768 18.4455 19.4768H18.457C18.7927 19.4768 19.0936 19.3325 19.3019 19.0773L24.1513 13.1736L25.054 14.2722L26.0609 15.4929C26.1882 15.6815 26.1882 15.9368 26.0378 16.1254Z" fill="white"/>
</svg>
