<svg width="56" height="56" viewBox="0 0 56 56" fill="none" xmlns="http://www.w3.org/2000/svg">
<path d="M41.8344 27.1999L36.0869 34.2017C35.6601 34.7133 34.8673 34.7133 34.4405 34.2017L29.3486 27.9892C29.0742 27.653 28.6778 27.463 28.2357 27.463C27.8088 27.463 27.4124 27.6384 27.1228 27.9454C27.1075 27.96 27.0923 27.9746 27.077 27.9892L21.9852 34.1871C21.5583 34.6987 20.7655 34.6987 20.3387 34.1871L14.5912 27.1853L17.061 24.1887L21.1772 19.1749L27.6716 11.2522C27.946 10.9159 28.4796 10.9159 28.7693 11.2522L35.2637 19.1749L39.3799 24.1887L41.8344 27.1999Z" fill="#020202"/>
<path d="M45.2978 32.2408L39.3675 39.4619L35.8153 43.7887C35.5409 44.1249 35.0073 44.1249 34.7177 43.7887L31.1656 39.4619L28.7721 36.5384C28.4976 36.2022 27.9488 36.2022 27.6744 36.5384L25.2809 39.4619L21.7288 43.7887C21.4544 44.1249 20.9056 44.1249 20.6311 43.7887L17.079 39.4619L11.1486 32.2408C10.9505 31.9923 10.9505 31.6561 11.1486 31.4076L12.475 29.7997L13.6641 28.3525L20.0671 36.1437L20.0823 36.1583C20.3567 36.4799 20.7683 36.6699 21.2105 36.6553C21.6526 36.6553 22.0489 36.4653 22.3234 36.1291L27.4152 29.9312C27.8421 29.4196 28.6349 29.4196 29.0617 29.9312L34.1689 36.1437L34.1841 36.1583C34.4585 36.4799 34.8549 36.6553 35.297 36.6553H35.3122C35.7544 36.6553 36.1507 36.4653 36.4251 36.1291L42.8129 28.3525L44.002 29.7997L45.3283 31.4076C45.496 31.6561 45.496 31.9923 45.2978 32.2408Z" fill="#020202"/>
</svg>
