<svg width="56" height="61" viewBox="0 0 56 61" fill="none" xmlns="http://www.w3.org/2000/svg">
<path d="M41.8344 30.1999L36.0869 37.2017C35.6601 37.7133 34.8673 37.7133 34.4405 37.2017L29.3486 30.9892C29.0742 30.653 28.6778 30.463 28.2357 30.463C27.8088 30.463 27.4124 30.6384 27.1228 30.9454C27.1075 30.96 27.0923 30.9746 27.077 30.9892L21.9852 37.1871C21.5583 37.6987 20.7655 37.6987 20.3387 37.1871L14.5912 30.1853L17.061 27.1887L21.1772 22.1749L27.6716 14.2522C27.946 13.9159 28.4796 13.9159 28.7693 14.2522L35.2637 22.1749L39.3799 27.1887L41.8344 30.1999Z" fill="#020202"/>
<path d="M45.2978 35.2408L39.3675 42.4619L35.8153 46.7887C35.5409 47.1249 35.0073 47.1249 34.7177 46.7887L31.1656 42.4619L28.7721 39.5384C28.4976 39.2022 27.9488 39.2022 27.6744 39.5384L25.2809 42.4619L21.7288 46.7887C21.4544 47.1249 20.9056 47.1249 20.6311 46.7887L17.079 42.4619L11.1486 35.2408C10.9505 34.9923 10.9505 34.6561 11.1486 34.4076L12.475 32.7997L13.6641 31.3525L20.0671 39.1437L20.0823 39.1583C20.3567 39.4799 20.7683 39.6699 21.2105 39.6553C21.6526 39.6553 22.0489 39.4653 22.3234 39.1291L27.4152 32.9312C27.8421 32.4196 28.6349 32.4196 29.0617 32.9312L34.1689 39.1437L34.1841 39.1583C34.4585 39.4799 34.8549 39.6553 35.297 39.6553H35.3122C35.7544 39.6553 36.1507 39.4653 36.4251 39.1291L42.8129 31.3525L44.002 32.7997L45.3283 34.4076C45.496 34.6561 45.496 34.9923 45.2978 35.2408Z" fill="#020202"/>
</svg>
