<svg width="56" height="61" viewBox="0 0 56 61" fill="none" xmlns="http://www.w3.org/2000/svg">
<rect y="2" width="56" height="56" rx="12" fill="#020202"/>
<path d="M39.955 29.7735L34.9132 35.9156C34.5387 36.3644 33.8433 36.3644 33.4688 35.9156L29.0021 30.4659C28.7614 30.171 28.4137 30.0043 28.0258 30.0043C27.6514 30.0043 27.3037 30.1582 27.0496 30.4274C27.0362 30.4403 27.0228 30.4531 27.0095 30.4659L22.5427 35.9028C22.1683 36.3516 21.4728 36.3516 21.0984 35.9028L16.0566 29.7606L18.2231 27.132L21.8339 22.7337L27.531 15.7837C27.7717 15.4888 28.2398 15.4888 28.4939 15.7837L34.191 22.7337L37.8019 27.132L39.955 29.7735Z" fill="white"/>
<path d="M42.9932 34.1956L37.791 40.5301L34.6749 44.3257C34.4342 44.6206 33.9661 44.6206 33.712 44.3257L30.596 40.5301L28.4964 37.9655C28.2557 37.6706 27.7742 37.6706 27.5335 37.9655L25.4339 40.5301L22.3178 44.3257C22.0771 44.6206 21.5957 44.6206 21.3549 44.3257L18.2389 40.5301L13.0366 34.1956C12.8628 33.9776 12.8628 33.6827 13.0366 33.4647L14.2001 32.0541L15.2433 30.7847L20.8601 37.6193L20.8735 37.6321C21.1142 37.9142 21.4753 38.0809 21.8631 38.0681C22.251 38.0681 22.5987 37.9014 22.8394 37.6065L27.3061 32.1695C27.6806 31.7207 28.376 31.7207 28.7505 32.1695L33.2306 37.6193L33.244 37.6321C33.4847 37.9142 33.8324 38.0681 34.2202 38.0681H34.2336C34.6214 38.0681 34.9691 37.9014 35.2099 37.6065L40.8134 30.7847L41.8565 32.0541L43.02 33.4647C43.1671 33.6827 43.1671 33.9776 42.9932 34.1956Z" fill="white"/>
</svg>
