<svg width="56" height="56" viewBox="0 0 56 56" fill="none" xmlns="http://www.w3.org/2000/svg">
<rect width="56" height="56" rx="12" fill="#020202"/>
<path d="M39.9549 27.7735L34.9131 33.9156C34.5386 34.3644 33.8432 34.3644 33.4687 33.9156L29.002 28.4659C28.7613 28.171 28.4136 28.0043 28.0257 28.0043C27.6513 28.0043 27.3036 28.1582 27.0495 28.4274C27.0361 28.4403 27.0227 28.4531 27.0093 28.4659L22.5426 33.9028C22.1681 34.3516 21.4727 34.3516 21.0983 33.9028L16.0565 27.7606L18.223 25.132L21.8338 20.7337L27.5309 13.7837C27.7716 13.4888 28.2397 13.4888 28.4938 13.7837L34.1909 20.7337L37.8017 25.132L39.9549 27.7735Z" fill="white"/>
<path d="M42.9932 32.1961L37.791 38.5306L34.6749 42.3262C34.4342 42.6211 33.9661 42.6211 33.712 42.3262L30.596 38.5306L28.4964 35.966C28.2557 35.6711 27.7742 35.6711 27.5335 35.966L25.4339 38.5306L22.3178 42.3262C22.0771 42.6211 21.5957 42.6211 21.3549 42.3262L18.2389 38.5306L13.0366 32.1961C12.8628 31.9781 12.8628 31.6831 13.0366 31.4651L14.2001 30.0546L15.2433 28.7852L20.8601 35.6198L20.8735 35.6326C21.1142 35.9147 21.4753 36.0814 21.8631 36.0686C22.251 36.0686 22.5987 35.9019 22.8394 35.607L27.3061 30.17C27.6806 29.7212 28.376 29.7212 28.7505 30.17L33.2306 35.6198L33.244 35.6326C33.4847 35.9147 33.8324 36.0686 34.2202 36.0686H34.2336C34.6214 36.0686 34.9691 35.9019 35.2099 35.607L40.8134 28.7852L41.8565 30.0546L43.02 31.4651C43.1671 31.6831 43.1671 31.9781 42.9932 32.1961Z" fill="white"/>
</svg>
