<svg width="56" height="56" viewBox="0 0 56 56" fill="none" xmlns="http://www.w3.org/2000/svg">
<path d="M37.6949 3H18.3051C15.2284 3 12.3858 4.64129 10.8479 7.30558L1.15346 24.0973C-0.384488 26.7616 -0.384488 30.0442 1.15346 32.7085L10.8479 49.5003C12.3858 52.1645 15.2292 53.8058 18.3051 53.8058H37.6949C40.7716 53.8058 43.6142 52.1645 45.1521 49.5003L54.8465 32.7085C56.3845 30.0442 56.3845 26.7616 54.8465 24.0973L45.1521 7.30558C43.6142 4.64129 40.7716 3 37.6949 3Z" fill="#3C82E2"/>
<path d="M15.647 24.3872C15.4248 24.6051 15.2259 24.8583 15.0588 25.1485L12.0199 30.4116C10.6671 32.7538 12.3584 35.6816 15.0631 35.6816H15.5075C15.7451 35.6816 15.938 35.4887 15.938 35.2511V31.7584V30.6277V24.6516V24.5112C15.9372 24.3614 15.7546 24.2813 15.647 24.3872Z" fill="white"/>
<path d="M44.5916 30.412L41.5527 25.1488C41.2177 24.5684 40.7578 24.1327 40.2351 23.8399C40.1198 23.7753 39.9768 23.8571 39.9768 23.9897V24.6528V30.629V31.7596V35.2523C39.9768 35.49 40.1697 35.6829 40.4074 35.6829H41.5484C44.2531 35.682 45.9435 32.7542 44.5916 30.412Z" fill="white"/>
<path d="M38.1538 34.6921C37.6492 35.0529 37.0438 35.3844 36.3446 35.6815C36.2972 35.7013 36.2507 35.7219 36.2034 35.7409C33.9886 36.6511 31.0599 37.1523 27.9573 37.1523C24.8548 37.1523 21.927 36.6511 19.7113 35.7409C19.6631 35.7211 19.6166 35.7013 19.5701 35.6815C18.8709 35.3844 18.2664 35.0529 17.7609 34.6921C17.6464 34.6102 17.4871 34.6903 17.4871 34.8307V35.6815V38.8642C17.4871 39.7365 18.5385 40.6897 20.3003 41.4131C22.3326 42.2483 25.0519 42.7082 27.9573 42.7082C30.8627 42.7082 33.5813 42.2483 35.6144 41.4131C37.3762 40.6897 38.4276 39.7365 38.4276 38.8642V35.6815V34.8307C38.4268 34.6903 38.2683 34.6102 38.1538 34.6921Z" fill="white"/>
<path d="M38.1565 27.5836C37.6174 27.9694 36.9639 28.3225 36.2035 28.6351C35.2261 29.0363 34.1093 29.3584 32.9011 29.5926C31.3701 29.8897 29.6917 30.0464 27.9583 30.0464C26.5125 30.0464 25.1055 29.9362 23.7888 29.7278C22.2819 29.4893 20.8946 29.1216 19.7123 28.6351C18.9519 28.3225 18.2983 27.9694 17.7593 27.5836C17.6456 27.5027 17.488 27.5854 17.488 27.7249V31.7583C17.488 31.897 17.5147 32.0373 17.5664 32.1777C17.8394 32.9269 18.8193 33.6984 20.3013 34.3072C21.1159 34.6422 22.0425 34.9152 23.0457 35.1236C24.5449 35.4353 26.218 35.6015 27.9583 35.6015C29.9053 35.6015 31.7679 35.3939 33.398 35.0064C34.1997 34.8161 34.9454 34.5819 35.6154 34.3072C37.0973 33.6984 38.0773 32.9269 38.3502 32.1777C38.4019 32.0365 38.4286 31.8961 38.4286 31.7583V27.7249C38.4269 27.5854 38.2693 27.5027 38.1565 27.5836Z" fill="white"/>
<path d="M38.3183 16.3383C38.2942 16.2823 38.2666 16.2263 38.2347 16.1712C38.1874 16.0877 38.1314 16.0033 38.0677 15.9197C38.0246 15.8638 37.979 15.8087 37.9291 15.7527C37.4554 15.2266 36.6598 14.7159 35.6135 14.2862C34.3434 13.7644 32.8046 13.3889 31.1202 13.1805C30.7835 13.1392 30.4408 13.1039 30.0929 13.0755C29.398 13.0195 28.6833 12.9902 27.9565 12.9902C27.2297 12.9902 26.5159 13.0187 25.8201 13.0755C25.4722 13.1039 25.1295 13.1383 24.7928 13.1805C23.1084 13.3889 21.5696 13.7644 20.2995 14.2862C19.2532 14.7159 18.4584 15.2266 17.9839 15.7527C17.934 15.8078 17.8875 15.8638 17.8453 15.9197C17.7816 16.0033 17.7256 16.0868 17.6782 16.1712C17.6464 16.2272 17.6188 16.2831 17.5947 16.3383C17.5835 16.3641 17.5732 16.3899 17.5637 16.4158C17.512 16.557 17.4854 16.6973 17.4854 16.8351V19.5631V24.6515C17.4854 24.7901 17.512 24.9305 17.5637 25.0708C17.8367 25.82 18.8166 26.5916 20.2986 27.2004C21.0374 27.5043 21.8684 27.7575 22.7648 27.9573C24.3338 28.3078 26.1068 28.4946 27.9556 28.4946C30.1308 28.4946 32.2009 28.2371 33.9576 27.7566C34.5475 27.5956 35.1012 27.4096 35.6118 27.1995C37.0938 26.5907 38.0737 25.8191 38.3467 25.07C38.3984 24.9287 38.4251 24.7884 38.4251 24.6506V16.8343C38.4251 16.6956 38.3984 16.5553 38.3467 16.4149C38.3398 16.3899 38.3295 16.3641 38.3183 16.3383ZM31.4414 20.7325C31.779 20.7325 32.0847 20.8729 32.3034 21.0968C32.4903 21.2888 32.6143 21.542 32.641 21.8236C32.6444 21.8614 32.647 21.8993 32.647 21.9381C32.647 22.6029 32.1062 23.1436 31.4414 23.1436C30.8447 23.1436 30.3487 22.7071 30.2539 22.1361C30.2436 22.0716 30.2359 22.0053 30.2359 21.9381C30.2359 21.7228 30.2936 21.5204 30.3926 21.3456C30.5993 20.9797 30.9919 20.7325 31.4414 20.7325ZM23.4374 21.8537C23.4572 21.5721 23.5743 21.3164 23.7551 21.1209C23.9756 20.8824 24.2899 20.7325 24.6386 20.7325C25.0942 20.7325 25.492 20.9866 25.6969 21.3611C25.7908 21.5325 25.8442 21.7288 25.8442 21.9381C25.8442 22.0096 25.8364 22.0793 25.8244 22.1482C25.7245 22.7131 25.2311 23.1436 24.6386 23.1436C23.9738 23.1436 23.4331 22.6029 23.4331 21.9381C23.4331 21.9097 23.4348 21.8813 23.4374 21.8537Z" fill="white"/>
</svg>
