<svg width="427" height="143" viewBox="0 0 427 143" fill="none" xmlns="http://www.w3.org/2000/svg">
<path d="M93.5316 11.2061H47.6521C40.3719 11.2061 33.646 15.0896 30.0069 21.3938L7.06816 61.1261C3.4291 67.4303 3.4291 75.1974 7.06816 81.5016L30.0069 121.234C33.646 127.538 40.3739 131.422 47.6521 131.422H93.5316C100.812 131.422 107.538 127.538 111.177 121.234L134.115 81.5016C137.755 75.1974 137.755 67.4303 134.115 61.1261L111.177 21.3938C107.538 15.0896 100.812 11.2061 93.5316 11.2061Z" fill="#3C82E2"/>
<path d="M41.3621 61.8127C40.8364 62.3282 40.3657 62.9272 39.9704 63.6139L32.7799 76.0674C29.5789 81.6096 33.5806 88.5372 39.9806 88.5372H41.032C41.5944 88.5372 42.0508 88.0808 42.0508 87.5185V79.2541V76.5788V62.4382V62.1061C42.0487 61.7515 41.6168 61.562 41.3621 61.8127Z" fill="white"/>
<path d="M109.85 76.0678L102.66 63.6142C101.867 62.2409 100.779 61.2099 99.5424 60.5172C99.2694 60.3644 98.9312 60.5579 98.9312 60.8717V62.4406V76.5813V79.2566V87.5209C98.9312 88.0833 99.3876 88.5397 99.9499 88.5397H102.65C109.05 88.5376 113.049 81.6099 109.85 76.0678Z" fill="white"/>
<path d="M94.6175 86.196C93.4234 87.0497 91.9911 87.8341 90.3366 88.5371C90.2245 88.584 90.1145 88.6329 90.0024 88.6777C84.7618 90.8314 77.8321 92.0172 70.4909 92.0172C63.1496 92.0172 56.2219 90.8314 50.9793 88.6777C50.8652 88.6308 50.7552 88.584 50.6451 88.5371C48.9906 87.8341 47.5603 87.0497 46.3643 86.196C46.0933 86.0024 45.7163 86.1919 45.7163 86.524V88.5371V96.0679C45.7163 98.1319 48.2042 100.388 52.373 102.099C57.1816 104.075 63.6162 105.164 70.4909 105.164C77.3655 105.164 83.7981 104.075 88.6087 102.099C92.7775 100.388 95.2654 98.1319 95.2654 96.0679V88.5371V86.524C95.2634 86.1919 94.8884 86.0024 94.6175 86.196Z" fill="white"/>
<path d="M94.6235 69.3782C93.348 70.291 91.8015 71.1264 90.0023 71.866C87.6897 72.8155 85.047 73.5776 82.1883 74.1318C78.5656 74.8347 74.5944 75.2056 70.4928 75.2056C67.0718 75.2056 63.7424 74.9448 60.627 74.4517C57.0613 73.8873 53.7788 73.0172 50.9812 71.866C49.1821 71.1264 47.6356 70.291 46.3601 69.3782C46.0911 69.1867 45.7183 69.3823 45.7183 69.7123V79.2562C45.7183 79.5843 45.7814 79.9164 45.9037 80.2485C46.5496 82.0212 48.8683 83.8468 52.3749 85.2873C54.3024 86.0799 56.4949 86.7259 58.8686 87.2189C62.416 87.9565 66.3749 88.3498 70.4928 88.3498C75.0997 88.3498 79.5069 87.8587 83.364 86.9418C85.261 86.4915 87.0255 85.9373 88.6107 85.2873C92.1173 83.8468 94.436 82.0212 95.0819 80.2485C95.2042 79.9143 95.2673 79.5822 95.2673 79.2562V69.7123C95.2633 69.3823 94.8904 69.1867 94.6235 69.3782Z" fill="white"/>
<path d="M95.0068 42.7677C94.9497 42.6353 94.8845 42.5028 94.8091 42.3724C94.6971 42.1748 94.5646 41.9751 94.4139 41.7775C94.312 41.645 94.204 41.5146 94.0858 41.3822C92.9652 40.1372 91.0825 38.929 88.6068 37.9122C85.6015 36.6775 81.9604 35.7891 77.9749 35.296C77.1782 35.1982 76.3673 35.1147 75.5441 35.0474C73.8998 34.915 72.2087 34.8457 70.489 34.8457C68.7693 34.8457 67.0802 34.9129 65.4338 35.0474C64.6107 35.1147 63.7997 35.1962 63.003 35.296C59.0176 35.7891 55.3765 36.6775 52.3711 37.9122C49.8955 38.929 48.0148 40.1372 46.8921 41.3822C46.774 41.5126 46.6639 41.645 46.5641 41.7775C46.4133 41.9751 46.2809 42.1727 46.1688 42.3724C46.0934 42.5049 46.0282 42.6373 45.9712 42.7677C45.9447 42.8288 45.9202 42.89 45.8978 42.9511C45.7756 43.2852 45.7124 43.6174 45.7124 43.9434V50.3983V62.4382C45.7124 62.7663 45.7756 63.0984 45.8978 63.4305C46.5437 65.2032 48.8624 67.0288 52.3691 68.4694C54.1173 69.1886 56.0835 69.7877 58.2046 70.2604C61.917 71.0897 66.1123 71.5318 70.4869 71.5318C75.6338 71.5318 80.5321 70.9226 84.6886 69.7856C86.0844 69.4046 87.3945 68.9645 88.6028 68.4673C92.1094 67.0268 94.4281 65.2011 95.074 63.4285C95.1963 63.0943 95.2594 62.7622 95.2594 62.4362V43.9413C95.2594 43.6133 95.1963 43.2812 95.074 42.949C95.0577 42.89 95.0333 42.8288 95.0068 42.7677ZM78.7349 53.1653C79.5337 53.1653 80.257 53.4974 80.7745 54.0272C81.2167 54.4816 81.5101 55.0806 81.5732 55.7469C81.5814 55.8366 81.5875 55.9262 81.5875 56.0179C81.5875 57.5909 80.3079 58.8705 78.7349 58.8705C77.3229 58.8705 76.1493 57.8374 75.9252 56.4865C75.9007 56.3337 75.8824 56.1768 75.8824 56.0179C75.8824 55.5085 76.0189 55.0297 76.2532 54.6161C76.7422 53.7501 77.6713 53.1653 78.7349 53.1653ZM59.7959 55.8182C59.8428 55.1519 60.1199 54.5468 60.5478 54.0843C61.0694 53.5199 61.8131 53.1653 62.6383 53.1653C63.7162 53.1653 64.6575 53.7664 65.1425 54.6527C65.3645 55.0582 65.4909 55.5228 65.4909 56.0179C65.4909 56.187 65.4725 56.3521 65.444 56.5151C65.2077 57.8517 64.0401 58.8705 62.6383 58.8705C61.0653 58.8705 59.7857 57.5909 59.7857 56.0179C59.7857 55.9507 59.7898 55.8834 59.7959 55.8182Z" fill="white"/>
<path d="M166.785 38.2976H185.764C190.016 38.186 194.266 38.6034 198.416 39.5403C201.988 40.445 205.284 42.2097 208.018 44.6805C211.955 48.3889 215.013 52.931 216.967 57.9743C218.922 63.0176 219.724 68.4343 219.314 73.8276C219.358 77.7891 218.998 81.7447 218.241 85.6333C217.547 88.9876 216.367 92.2226 214.739 95.236C213.169 98.117 211.126 100.714 208.695 102.918C206.826 104.617 204.713 106.026 202.426 107.098C200.06 108.136 197.575 108.876 195.027 109.301C192.09 109.729 189.126 109.937 186.159 109.923H167.124C165.06 110.048 162.998 109.64 161.137 108.736C159.861 107.99 158.928 106.773 158.539 105.347C158.061 103.504 157.852 101.601 157.918 99.6985V47.1659C157.804 45.9542 157.93 44.7319 158.288 43.5688C158.647 42.4057 159.231 41.3247 160.008 40.3876C160.945 39.611 162.026 39.0267 163.189 38.6681C164.352 38.3095 165.574 38.1836 166.785 38.2976V38.2976ZM180.285 49.5949H175.54C175.061 49.5949 174.601 49.7853 174.262 50.1243C173.923 50.4633 173.733 50.923 173.733 51.4024V98.3993C173.738 98.5229 173.774 98.6432 173.838 98.7491C173.902 98.855 173.991 98.943 174.099 99.005C174.206 99.067 174.327 99.1009 174.45 99.1037C174.574 99.1064 174.696 99.0778 174.806 99.0206C177.187 97.713 179.147 95.7535 180.454 93.372L193.106 71.3987C194.334 69.1705 194.96 66.6606 194.921 64.1167C194.883 61.5729 194.182 59.083 192.887 56.8929C191.592 54.7028 189.749 52.8882 187.539 51.6282C185.329 50.3682 182.829 49.7063 180.285 49.7078V49.5949Z" fill="#3C82E2"/>
<path d="M262.636 110.036H240.721C239.496 110.159 238.258 110.033 237.083 109.664C235.909 109.295 234.821 108.691 233.886 107.889C232.365 105.974 231.637 103.547 231.853 101.111V47.166C231.598 44.7083 232.329 42.2498 233.886 40.3312C235.773 38.7974 238.187 38.067 240.608 38.2977H263.879C266.847 38.2454 269.814 38.4533 272.746 38.919C275.142 39.2804 277.444 40.1054 279.524 41.3479C281.218 42.3895 282.742 43.685 284.043 45.189C285.307 46.7328 286.317 48.4679 287.036 50.3293C287.781 52.2968 288.164 54.3827 288.166 56.4863C288.228 59.9156 287.223 63.2794 285.291 66.1128C283.358 68.9462 280.593 71.1091 277.378 72.3026C281.418 73.0876 285.051 75.2754 287.635 78.4796C290.219 81.6838 291.587 85.6981 291.498 89.8134C291.549 93.647 290.489 97.4134 288.448 100.659C286.38 103.634 283.497 105.949 280.146 107.324C277.712 108.276 275.17 108.921 272.577 109.245C269.285 109.733 265.964 109.998 262.636 110.036V110.036ZM246.425 49.1996V67.7836H259.755C262.597 67.8863 265.436 67.5432 268.171 66.7669C270.123 66.0972 271.741 64.7013 272.69 62.8693C273.491 61.4588 273.901 59.8595 273.876 58.2374C274.086 56.7576 273.829 55.2489 273.141 53.9223C272.452 52.5956 271.366 51.5172 270.035 50.8377C266.259 49.463 262.243 48.8673 258.23 49.0866L246.425 49.1996ZM261.563 78.1772H246.425V99.1337H262.128C271.956 99.1337 276.87 95.575 276.87 88.5142C276.983 86.9744 276.688 85.4319 276.014 84.0431C275.339 82.6543 274.309 81.4685 273.029 80.6061C269.509 78.7398 265.537 77.8983 261.563 78.1772V78.1772Z" fill="#3C82E2"/>
<path d="M340.469 87.3849H314.318C314.314 90.1664 314.951 92.9113 316.181 95.406C317.231 97.5728 318.877 99.3952 320.926 100.659C322.915 101.815 325.177 102.42 327.478 102.41C328.946 102.407 330.407 102.218 331.827 101.845C333.185 101.45 334.479 100.86 335.668 100.094C336.86 99.2876 338.01 98.4203 339.113 97.496L343.18 93.7679C344.029 93.1484 345.069 92.8483 346.117 92.9206C347.333 92.8501 348.528 93.2553 349.45 94.0503C349.879 94.452 350.213 94.9444 350.428 95.4916C350.643 96.0388 350.733 96.627 350.692 97.2135C350.598 98.7245 350.112 100.185 349.28 101.45C348.164 103.259 346.706 104.832 344.988 106.082C342.82 107.714 340.396 108.974 337.814 109.81C334.601 110.829 331.244 111.325 327.873 111.279C324.207 111.493 320.535 110.951 317.086 109.688C313.637 108.425 310.484 106.467 307.822 103.935C305.365 101.253 303.466 98.1087 302.234 94.6856C301.003 91.2626 300.464 87.6288 300.649 83.9957C300.623 80.2482 301.235 76.5236 302.456 72.9808C303.543 69.7708 305.295 66.826 307.596 64.3383C309.905 61.8564 312.743 59.9258 315.899 58.6897C319.397 57.3613 323.115 56.7095 326.857 56.7691C331.549 56.651 336.188 57.7816 340.3 60.0454C343.69 62.0023 346.513 64.8065 348.493 68.1831C350.474 71.5598 351.543 75.3931 351.596 79.3073C351.596 82.64 350.636 84.9559 348.715 85.8032C346.133 86.9851 343.305 87.5276 340.469 87.3849V87.3849ZM314.318 79.7592H338.549C338.56 76.0262 337.261 72.4076 334.877 69.5351C333.778 68.412 332.457 67.5305 330.998 66.9469C329.54 66.3633 327.975 66.0905 326.405 66.1459C324.872 66.0946 323.346 66.3761 321.932 66.9709C320.518 67.5657 319.25 68.4598 318.215 69.5916C315.833 72.4597 314.463 76.0335 314.318 79.7592V79.7592Z" fill="#3C82E2"/>
<path d="M400.058 87.3843H373.907C373.883 90.1616 374.501 92.9067 375.714 95.4054C376.802 97.5642 378.463 99.3817 380.515 100.659C382.484 101.815 384.727 102.42 387.011 102.41C388.497 102.403 389.976 102.214 391.416 101.845C392.77 101.438 394.062 100.849 395.257 100.094C396.441 99.3009 397.573 98.433 398.646 97.4954C399.7 96.5916 401.056 95.3489 402.713 93.7673C403.568 93.1606 404.603 92.8618 405.65 92.92C406.252 92.879 406.857 92.9577 407.429 93.1516C408.001 93.3455 408.529 93.6507 408.982 94.0497C409.418 94.4486 409.761 94.939 409.986 95.4859C410.21 96.0328 410.311 96.6225 410.281 97.2129C410.232 98.7863 409.785 100.321 408.982 101.675C407.866 103.484 406.408 105.057 404.69 106.307C402.508 107.95 400.063 109.211 397.46 110.035C394.247 111.058 390.89 111.554 387.519 111.504C383.861 111.717 380.198 111.175 376.758 109.911C373.318 108.648 370.175 106.691 367.524 104.161C365.056 101.485 363.15 98.3424 361.918 94.9175C360.686 91.4926 360.153 87.8554 360.351 84.221C360.335 80.4789 360.927 76.759 362.102 73.2061C363.211 70.0065 364.96 67.0661 367.242 64.5637C369.559 62.0657 372.419 60.1331 375.601 58.915C379.035 57.5497 382.694 56.8408 386.389 56.825C391.08 56.7203 395.716 57.8501 399.832 60.1013C403.355 62.1404 406.247 65.1112 408.191 68.6872C410.001 71.9575 410.972 75.6257 411.016 79.3632C411.016 82.6959 410.055 85.0118 408.135 85.8591C405.598 86.989 402.832 87.5113 400.058 87.3843V87.3843ZM373.907 79.7586H398.138C398.105 76.0236 396.789 72.4135 394.41 69.5345C393.33 68.4013 392.021 67.5125 390.569 66.9279C389.117 66.3433 387.557 66.0765 385.994 66.1453C384.461 66.094 382.935 66.3755 381.521 66.9703C380.107 67.5651 378.839 68.4592 377.804 69.591C375.422 72.4591 374.052 76.0329 373.907 79.7586V79.7586Z" fill="#3C82E2"/>
</svg>
