<svg width="567" height="142" viewBox="0 0 567 142" fill="none" xmlns="http://www.w3.org/2000/svg">
<path d="M202.44 57.2764H216.602L224.723 94.2143L233.038 57.2764H247.59L232.064 108.541H217.836L209.456 71.167L200.946 108.541H186.394L171.387 57.2764H186.394L194.709 94.0897L202.44 57.2764Z" fill="white"/>
<path d="M290.264 58.2818C293.967 59.9014 297.086 62.393 299.489 65.8812C301.698 68.9334 303.127 72.484 303.777 76.4705C304.167 78.8375 304.297 82.2012 304.232 86.6238H265.253C265.448 91.7938 267.332 95.3444 270.84 97.4622C272.984 98.7703 275.518 99.3932 278.571 99.3932C281.754 99.3932 284.353 98.5835 286.367 97.0262C287.471 96.1541 288.445 95.0329 289.225 93.4757H303.517C303.127 96.5279 301.438 99.5801 298.32 102.757C293.513 107.74 286.821 110.232 278.181 110.232C271.035 110.232 264.798 108.114 259.341 103.94C253.884 99.767 251.156 92.9151 251.156 83.3847C251.156 74.4772 253.624 67.6876 258.497 62.9536C263.434 58.2196 269.801 55.8525 277.596 55.8525C282.339 55.9148 286.497 56.7246 290.264 58.2818ZM269.346 69.8678C267.397 71.7988 266.098 74.4772 265.643 77.7786H289.745C289.485 74.2281 288.251 71.4873 286.042 69.6809C283.833 67.8122 281.039 66.9402 277.726 66.9402C274.088 66.9402 271.295 67.9368 269.346 69.8678Z" fill="white"/>
<path d="M322.155 92.1655C322.48 94.5325 323.064 96.2143 324.104 97.2733C325.858 99.0797 329.041 99.9517 333.784 99.9517C336.577 99.9517 338.721 99.578 340.345 98.7682C341.969 97.9584 342.814 96.8372 342.814 95.2177C342.814 93.7227 342.164 92.5392 340.865 91.7917C339.566 90.982 334.693 89.6739 326.248 87.7429C320.141 86.3102 315.918 84.5038 313.385 82.3236C310.916 80.2058 309.682 77.0913 309.682 73.1047C309.682 68.3707 311.631 64.3218 315.529 60.8959C319.426 57.4699 324.883 55.7881 331.9 55.7881C338.591 55.7881 344.048 57.0962 348.271 59.6501C352.494 62.204 354.897 66.6266 355.547 72.9178H341.58C341.385 71.1737 340.865 69.8033 340.085 68.8067C338.526 67.0003 335.928 66.0659 332.225 66.0659C329.171 66.0659 327.027 66.502 325.728 67.4363C324.429 68.3707 323.779 69.4296 323.779 70.6131C323.779 72.1704 324.494 73.2916 325.858 73.9768C327.222 74.7243 332.095 75.9078 340.475 77.7142C346.062 78.96 350.22 80.891 353.013 83.3826C355.742 85.9365 357.106 89.1755 357.106 93.0375C357.106 98.1453 355.157 102.256 351.194 105.496C347.231 108.735 341.125 110.292 332.874 110.292C324.429 110.292 318.257 108.61 314.229 105.184C310.201 101.758 308.188 97.4601 308.188 92.1655H322.155V92.1655Z" fill="white"/>
<path d="M402.063 58.2818C405.766 59.9014 408.885 62.393 411.288 65.8812C413.497 68.9334 414.926 72.484 415.576 76.4705C415.966 78.8375 416.096 82.2012 416.031 86.6238H377.052C377.247 91.7938 379.131 95.3444 382.639 97.4622C384.783 98.7703 387.316 99.3932 390.37 99.3932C393.553 99.3932 396.152 98.5835 398.165 97.0262C399.27 96.1541 400.244 95.0329 401.024 93.4757H415.316C414.926 96.5279 413.237 99.5801 410.119 102.757C405.312 107.74 398.62 110.232 389.98 110.232C382.834 110.232 376.597 108.114 371.14 103.94C365.683 99.767 362.955 92.9151 362.955 83.3847C362.955 74.4772 365.423 67.6876 370.296 62.9536C375.233 58.2196 381.599 55.8525 389.395 55.8525C394.138 55.9148 398.295 56.7246 402.063 58.2818ZM381.145 69.8678C379.196 71.7988 377.896 74.4772 377.442 77.7786H401.544C401.284 74.2281 400.049 71.4873 397.841 69.6809C395.632 67.8122 392.838 66.9402 389.525 66.9402C385.887 66.9402 383.094 67.9368 381.145 69.8678Z" fill="white"/>
<path d="M450.792 56.0469C450.987 56.0469 451.377 56.1092 452.027 56.1092V69.8753C451.117 69.7507 450.337 69.6884 449.688 69.6884C448.973 69.6884 448.454 69.6261 447.999 69.6261C442.347 69.6261 438.579 71.3702 436.695 74.9208C435.591 76.9141 435.071 79.9663 435.071 84.0774V108.62H420.974V57.2927H434.291V66.2625C436.435 62.8365 438.319 60.5318 439.943 59.2237C442.542 57.1058 445.985 56.0469 450.143 56.0469C450.402 56.0469 450.597 56.0469 450.792 56.0469Z" fill="white"/>
<path d="M495.175 57.2764H510.182L490.887 108.541H476.14L456.911 57.2764H472.632L483.741 95.0864L495.175 57.2764Z" fill="white"/>
<path d="M552.946 58.2818C556.649 59.9014 559.768 62.393 562.171 65.8812C564.38 68.9334 565.809 72.484 566.459 76.4705C566.849 78.8375 566.979 82.2012 566.914 86.6238H527.935C528.13 91.7938 530.014 95.3444 533.522 97.4622C535.666 98.7703 538.199 99.3932 541.253 99.3932C544.436 99.3932 547.034 98.5835 549.048 97.0262C550.153 96.1541 551.127 95.0329 551.907 93.4757H566.199C565.809 96.5279 564.12 99.5801 561.002 102.757C556.194 107.74 549.503 110.232 540.863 110.232C533.717 110.232 527.48 108.114 522.023 103.94C516.566 99.767 513.837 92.9151 513.837 83.3847C513.837 74.4772 516.306 67.6876 521.178 62.9536C526.116 58.2196 532.482 55.8525 540.278 55.8525C545.021 55.9148 549.243 56.7246 552.946 58.2818ZM532.028 69.8678C530.079 71.7988 528.779 74.4772 528.325 77.7786H552.427C552.167 74.2281 550.932 71.4873 548.724 69.6809C546.515 67.8122 543.721 66.9402 540.408 66.9402C536.77 66.9402 534.041 67.9368 532.028 69.8678Z" fill="white"/>
<path d="M131.395 69.9031L106.903 99.74C105.084 101.92 101.706 101.92 99.8868 99.74L78.1885 73.2668C77.0192 71.8341 75.3301 71.0243 73.4461 71.0243C71.6271 71.0243 69.938 71.7718 68.7037 73.0799C68.6387 73.1422 68.5738 73.2045 68.5088 73.2668L46.8106 99.6778C44.9916 101.858 41.6134 101.858 39.7944 99.6778L15.3027 69.8408L25.827 57.0713L43.3675 35.7058L71.0424 1.94462C72.2118 0.511949 74.4856 0.511949 75.7199 1.94462L103.395 35.7058L120.935 57.0713L131.395 69.9031Z" fill="white"/>
<path d="M146.154 91.3847L120.883 122.156L105.746 140.594C104.576 142.027 102.303 142.027 101.068 140.594L85.9315 122.156L75.7321 109.698C74.5627 108.265 72.224 108.265 71.0546 109.698L60.8552 122.156L45.7184 140.594C44.549 142.027 42.2103 142.027 41.041 140.594L25.9042 122.156L0.632917 91.3847C-0.211624 90.3257 -0.211624 88.893 0.632917 87.8341L6.28485 80.9822L11.3521 74.8154L38.6373 108.016L38.7022 108.078C39.8716 109.449 41.6256 110.259 43.5096 110.196C45.3936 110.196 47.0827 109.387 48.252 107.954L69.9502 81.5428C71.7693 79.3626 75.1474 79.3626 76.9664 81.5428L98.7296 108.016L98.7946 108.078C99.9639 109.449 101.653 110.196 103.537 110.196H103.602C105.486 110.196 107.175 109.387 108.344 107.954L135.565 74.8154L140.632 80.9822L146.284 87.8341C146.998 88.893 146.998 90.3257 146.154 91.3847Z" fill="white"/>
</svg>
