<svg width="194" height="98" viewBox="0 0 194 98" fill="none" xmlns="http://www.w3.org/2000/svg">
<path d="M15.9076 26.1802H28.8809C31.788 26.1039 34.6932 26.3893 37.5298 27.0297C39.9716 27.6482 42.225 28.8545 44.0937 30.5435C46.7852 33.0785 48.8756 36.1835 50.2117 39.6311C51.5479 43.0786 52.096 46.7815 51.8159 50.4683C51.8459 53.1763 51.6001 55.8804 51.0823 58.5386C50.608 60.8316 49.8016 63.043 48.6884 65.103C47.6148 67.0723 46.2183 68.8475 44.557 70.3544C43.279 71.5155 41.8344 72.4786 40.2712 73.2119C38.6539 73.9211 36.955 74.4269 35.2132 74.7178C33.2059 75.0103 31.1796 75.1522 29.1512 75.1425H16.1393C14.728 75.2286 13.3184 74.9493 12.0465 74.3317C11.1741 73.8216 10.5365 72.9898 10.2704 72.0148C9.94366 70.7549 9.8006 69.4543 9.8457 68.1534V32.2426C9.76779 31.4142 9.85385 30.5786 10.099 29.7836C10.3441 28.9885 10.7435 28.2495 11.2743 27.6089C11.9149 27.078 12.6538 26.6786 13.4488 26.4335C14.2438 26.1883 15.0794 26.1023 15.9076 26.1802V26.1802ZM25.1357 33.903H21.8923C21.5647 33.903 21.2504 34.0331 21.0187 34.2649C20.787 34.4966 20.6568 34.8109 20.6568 35.1386V67.2653C20.6602 67.3498 20.6849 67.4321 20.7287 67.5045C20.7724 67.5769 20.8337 67.637 20.9068 67.6794C20.98 67.7218 21.0627 67.745 21.1472 67.7468C21.2318 67.7487 21.3154 67.7292 21.3904 67.6901C23.0183 66.7962 24.3577 65.4567 25.2515 63.8287L33.9004 48.8079C34.7397 47.2847 35.1673 45.5689 35.141 43.83C35.1147 42.091 34.6354 40.389 33.7505 38.8919C32.8655 37.3947 31.6055 36.1543 30.0947 35.2929C28.584 34.4316 26.8747 33.9791 25.1357 33.9802V33.903Z" fill="#3C82E2"/>
<path d="M81.4306 75.2195H66.4495C65.612 75.304 64.766 75.2176 63.963 74.9653C63.1599 74.7131 62.4164 74.3004 61.7775 73.7522C60.7377 72.4428 60.2402 70.7842 60.3875 69.1186V32.2423C60.2133 30.5622 60.7132 28.8816 61.7775 27.57C63.0673 26.5216 64.7176 26.0223 66.3723 26.1799H82.28C84.3092 26.1442 86.3376 26.2863 88.3419 26.6047C89.9796 26.8517 91.5534 27.4157 92.9753 28.2651C94.1332 28.9771 95.1749 29.8627 96.0641 30.8908C96.9283 31.9461 97.6191 33.1323 98.1105 34.4047C98.6195 35.7497 98.8811 37.1756 98.8828 38.6136C98.9252 40.9578 98.2384 43.2573 96.9173 45.1942C95.5962 47.1311 93.706 48.6097 91.5081 49.4255C94.2701 49.9621 96.7536 51.4577 98.5199 53.648C100.286 55.8384 101.222 58.5826 101.161 61.3958C101.195 64.0164 100.471 66.5911 99.0758 68.8096C97.6622 70.8435 95.6913 72.4257 93.4 73.3661C91.7365 74.0165 89.9985 74.4575 88.2261 74.6789C85.9758 75.0129 83.7054 75.1936 81.4306 75.2195V75.2195ZM70.3492 33.6324V46.3364H79.4614C81.4036 46.4065 83.3448 46.172 85.2144 45.6413C86.5484 45.1836 87.6547 44.2293 88.3033 42.977C88.8512 42.0127 89.1311 40.9195 89.1142 39.8106C89.258 38.799 89.0823 37.7677 88.6116 36.8608C88.1409 35.9539 87.3987 35.2167 86.4886 34.7522C83.9071 33.8125 81.162 33.4053 78.4189 33.5552L70.3492 33.6324ZM80.697 53.4413H70.3492V67.7671H81.0831C87.8014 67.7671 91.1606 65.3344 91.1606 60.5077C91.2384 59.4551 91.0365 58.4006 90.5754 57.4512C90.1143 56.5018 89.4104 55.6913 88.535 55.1017C86.1291 53.8259 83.4135 53.2507 80.697 53.4413V53.4413Z" fill="#3C82E2"/>
<path d="M134.637 59.7352H116.76C116.757 61.6367 117.193 63.5131 118.034 65.2184C118.751 66.6996 119.877 67.9454 121.277 68.8095C122.637 69.5998 124.183 70.013 125.756 70.0065C126.76 70.0046 127.759 69.8748 128.729 69.6204C129.657 69.3499 130.542 68.9467 131.355 68.4233C132.17 67.8718 132.956 67.279 133.71 66.6471L136.49 64.0986C137.07 63.6751 137.781 63.47 138.498 63.5194C139.329 63.4712 140.146 63.7482 140.776 64.2917C141.069 64.5663 141.298 64.9029 141.445 65.2769C141.592 65.651 141.653 66.0531 141.625 66.454C141.561 67.4869 141.228 68.4852 140.66 69.3501C139.897 70.5865 138.9 71.6621 137.726 72.5164C136.244 73.6321 134.587 74.4933 132.822 75.0649C130.625 75.7616 128.331 76.1005 126.026 76.0689C123.52 76.2151 121.01 75.845 118.652 74.9815C116.294 74.118 114.139 72.7796 112.319 71.0491C110.64 69.2153 109.341 67.066 108.5 64.726C107.658 62.386 107.289 59.902 107.416 57.4184C107.399 54.8567 107.816 52.3106 108.651 49.8887C109.395 47.6944 110.592 45.6814 112.165 43.9808C113.743 42.2841 115.683 40.9644 117.841 40.1194C120.232 39.2113 122.774 38.7658 125.331 38.8065C128.539 38.7257 131.71 39.4986 134.521 41.0461C136.838 42.3839 138.768 44.3008 140.122 46.6091C141.476 48.9173 142.207 51.5377 142.243 54.2135C142.243 56.4917 141.587 58.0748 140.274 58.654C138.509 59.462 136.575 59.8328 134.637 59.7352V59.7352ZM116.76 54.5224H133.324C133.332 51.9705 132.444 49.4969 130.814 47.5333C130.063 46.7655 129.16 46.1629 128.163 45.764C127.165 45.3651 126.096 45.1786 125.023 45.2164C123.975 45.1814 122.932 45.3738 121.965 45.7804C120.999 46.187 120.132 46.7982 119.424 47.5719C117.795 49.5325 116.859 51.9755 116.76 54.5224V54.5224Z" fill="#3C82E2"/>
<path d="M175.371 59.7355H157.494C157.478 61.634 157.901 63.5106 158.73 65.2186C159.473 66.6944 160.609 67.9368 162.012 68.8097C163.358 69.6004 164.891 70.0139 166.452 70.0068C167.468 70.0024 168.48 69.8727 169.464 69.6206C170.389 69.3425 171.272 68.9398 172.089 68.4236C172.899 67.8816 173.672 67.2883 174.406 66.6474C175.127 66.0295 176.053 65.18 177.186 64.0988C177.77 63.6841 178.478 63.4799 179.194 63.5196C179.606 63.4916 180.019 63.5455 180.41 63.678C180.801 63.8105 181.162 64.0192 181.472 64.2919C181.77 64.5646 182.004 64.8999 182.158 65.2737C182.311 65.6475 182.38 66.0507 182.36 66.4543C182.326 67.5298 182.021 68.5793 181.472 69.5048C180.709 70.7412 179.712 71.8168 178.537 72.6711C177.046 73.7943 175.375 74.6561 173.595 75.2196C171.399 75.9189 169.104 76.2579 166.8 76.2236C164.299 76.369 161.795 75.9985 159.444 75.1349C157.092 74.2713 154.944 72.9332 153.131 71.2038C151.444 69.3749 150.141 67.2264 149.299 64.8851C148.457 62.5439 148.093 60.0576 148.228 57.5731C148.217 55.015 148.621 52.4721 149.425 50.0434C150.183 47.8562 151.379 45.8461 152.938 44.1355C154.522 42.4278 156.477 41.1068 158.653 40.2741C161 39.3408 163.501 38.8562 166.027 38.8454C169.234 38.7738 172.403 39.5461 175.217 41.085C177.625 42.479 179.602 44.5098 180.931 46.9543C182.168 49.1898 182.832 51.6974 182.862 54.2523C182.862 56.5305 182.205 58.1137 180.893 58.6929C179.158 59.4653 177.268 59.8223 175.371 59.7355V59.7355ZM157.494 54.5226H174.058C174.037 51.9694 173.137 49.5016 171.51 47.5335C170.772 46.7589 169.877 46.1513 168.885 45.7517C167.892 45.352 166.826 45.1696 165.757 45.2167C164.709 45.1816 163.666 45.374 162.7 45.7806C161.733 46.1872 160.866 46.7984 160.159 47.5721C158.53 49.5327 157.594 51.9758 157.494 54.5226V54.5226Z" fill="#3C82E2"/>
</svg>
