<svg width="427" height="60" viewBox="0 0 427 60" fill="none" xmlns="http://www.w3.org/2000/svg">
<path d="M33.5227 2.47656H48.8113L57.5776 42.3521L66.5545 2.47656H82.2638L65.5025 57.8182H50.1438L41.0968 17.4719L31.9097 57.8182H16.2003L0 2.47656H16.2003L25.1771 42.2177L33.5227 2.47656Z" fill="white"/>
<path d="M128.332 3.56245C132.329 5.31079 135.696 8.00054 138.291 11.7662C140.675 15.0611 142.218 18.894 142.919 23.1976C143.34 25.7529 143.48 29.3841 143.41 34.1584H101.332C101.542 39.7396 103.576 43.5725 107.363 45.8588C109.677 47.2709 112.412 47.9433 115.708 47.9433C119.145 47.9433 121.95 47.0692 124.124 45.3881C125.316 44.4467 126.368 43.2363 127.21 41.5552H142.639C142.218 44.8501 140.395 48.1451 137.028 51.5745C131.839 56.954 124.615 59.6438 115.288 59.6438C107.573 59.6438 100.841 57.3575 94.9496 52.8521C89.0585 48.3468 86.113 40.95 86.113 30.6617C86.113 21.0458 88.778 13.7163 94.0378 8.60573C99.3678 3.49521 106.241 0.939941 114.656 0.939941C119.776 1.00719 124.264 1.88136 128.332 3.56245ZM105.75 16.0698C103.646 18.1544 102.243 21.0458 101.752 24.6098H127.771C127.49 20.7769 126.158 17.8181 123.773 15.8681C121.389 13.8507 118.373 12.9093 114.797 12.9093C110.869 12.9093 107.854 13.9852 105.75 16.0698Z" fill="white"/>
<path d="M162.758 40.1405C163.109 42.6958 163.74 44.5114 164.862 45.6545C166.756 47.6046 170.192 48.546 175.312 48.546C178.327 48.546 180.642 48.1426 182.395 47.2684C184.148 46.3942 185.06 45.1838 185.06 43.4355C185.06 41.8216 184.359 40.544 182.956 39.7371C181.553 38.8629 176.294 37.4508 167.176 35.3662C160.584 33.8196 156.026 31.8695 153.29 29.516C150.625 27.2297 149.293 23.8675 149.293 19.5639C149.293 14.4534 151.397 10.0825 155.605 6.38411C159.813 2.6857 165.704 0.870117 173.278 0.870117C180.501 0.870117 186.393 2.28224 190.951 5.03924C195.51 7.79624 198.105 12.5706 198.806 19.3622H183.728C183.517 17.4794 182.956 16 182.115 14.9241C180.431 12.974 177.626 11.9654 173.629 11.9654C170.332 11.9654 168.018 12.4361 166.615 13.4447C165.213 14.4534 164.511 15.5965 164.511 16.8742C164.511 18.5553 165.283 19.7656 166.756 20.5053C168.228 21.3122 173.488 22.5899 182.535 24.54C188.567 25.8848 193.055 27.9694 196.071 30.6591C199.016 33.4161 200.489 36.9128 200.489 41.082C200.489 46.5959 198.385 51.034 194.107 54.5307C189.829 58.0274 183.237 59.7085 174.33 59.7085C165.213 59.7085 158.55 57.8929 154.202 54.1945C149.854 50.4961 147.68 45.8563 147.68 40.1405H162.758Z" fill="white"/>
<path d="M249.022 3.56245C253.019 5.31079 256.386 8.00054 258.981 11.7662C261.365 15.0611 262.908 18.894 263.609 23.1976C264.03 25.7529 264.17 29.3841 264.1 34.1584H222.021C222.232 39.7396 224.266 43.5725 228.053 45.8588C230.367 47.2709 233.102 47.9433 236.398 47.9433C239.835 47.9433 242.64 47.0692 244.814 45.3881C246.006 44.4467 247.058 43.2363 247.9 41.5552H263.329C262.908 44.8501 261.085 48.1451 257.718 51.5745C252.529 56.954 245.305 59.6438 235.978 59.6438C228.263 59.6438 221.531 57.3575 215.64 52.8521C209.748 48.3468 206.803 40.95 206.803 30.6617C206.803 21.0458 209.468 13.7163 214.728 8.60573C220.058 3.49521 226.931 0.939941 235.346 0.939941C240.466 1.00719 244.954 1.88136 249.022 3.56245ZM226.44 16.0698C224.336 18.1544 222.933 21.0458 222.442 24.6098H248.461C248.18 20.7769 246.848 17.8181 244.463 15.8681C242.079 13.8507 239.063 12.9093 235.487 12.9093C231.559 12.9093 228.544 13.9852 226.44 16.0698Z" fill="white"/>
<path d="M301.626 1.1499C301.836 1.1499 302.257 1.21714 302.958 1.21714V16.0781C301.976 15.9436 301.135 15.8763 300.434 15.8763C299.662 15.8763 299.101 15.8091 298.61 15.8091C292.509 15.8091 288.441 17.6919 286.407 21.5248C285.215 23.6766 284.654 26.9716 284.654 31.4097V57.9038H269.436V2.49478H283.813V12.1779C286.127 8.47949 288.161 5.99146 289.914 4.57934C292.719 2.29304 296.436 1.1499 300.925 1.1499C301.205 1.1499 301.415 1.1499 301.626 1.1499Z" fill="white"/>
<path d="M349.539 2.47656H365.739L344.91 57.8182H328.99L308.231 2.47656H325.203L337.196 43.2936L349.539 2.47656Z" fill="white"/>
<path d="M411.904 3.56245C415.902 5.31079 419.268 8.00054 421.863 11.7662C424.247 15.0611 425.79 18.894 426.492 23.1976C426.912 25.7529 427.053 29.3841 426.982 34.1584H384.904C385.114 39.7396 387.148 43.5725 390.935 45.8588C393.249 47.2709 395.984 47.9433 399.281 47.9433C402.717 47.9433 405.522 47.0692 407.696 45.3881C408.889 44.4467 409.941 43.2363 410.782 41.5552H426.211C425.79 44.8501 423.967 48.1451 420.6 51.5745C415.411 56.954 408.187 59.6438 398.86 59.6438C391.145 59.6438 384.413 57.3575 378.522 52.8521C372.631 48.3468 369.685 40.95 369.685 30.6617C369.685 21.0458 372.35 13.7163 377.61 8.60573C382.94 3.49521 389.813 0.939941 398.229 0.939941C403.348 1.00719 407.907 1.88136 411.904 3.56245ZM389.322 16.0698C387.218 18.1544 385.815 21.0458 385.324 24.6098H411.343C411.063 20.7769 409.73 17.8181 407.346 15.8681C404.961 13.8507 401.946 12.9093 398.369 12.9093C394.441 12.9093 391.496 13.9852 389.322 16.0698Z" fill="white"/>
</svg>
