<svg width="427" height="59" viewBox="0 0 427 59" fill="none" xmlns="http://www.w3.org/2000/svg">
<path d="M33.5227 1.60669H48.8113L57.5776 41.4823L66.5544 1.60669H82.2638L65.5025 56.9484H50.1438L41.0968 16.6021L31.9097 56.9484H16.2003L0 1.60669H16.2003L25.1771 41.3478L33.5227 1.60669Z" fill="#020202"/>
<path d="M128.332 2.69233C132.329 4.44067 135.696 7.13043 138.291 10.8961C140.675 14.191 142.218 18.0239 142.919 22.3275C143.34 24.8828 143.48 28.5139 143.41 33.2883H101.332C101.542 38.8695 103.576 42.7024 107.363 44.9887C109.677 46.4008 112.412 47.0732 115.708 47.0732C119.145 47.0732 121.95 46.1991 124.124 44.518C125.316 43.5766 126.368 42.3662 127.21 40.6851H142.639C142.218 43.98 140.395 47.275 137.028 50.7044C131.839 56.0839 124.615 58.7736 115.288 58.7736C107.573 58.7736 100.841 56.4874 94.9496 51.982C89.0585 47.4767 86.113 40.0799 86.113 29.7916C86.113 20.1757 88.778 12.8461 94.0378 7.73562C99.3678 2.62509 106.241 0.0698242 114.656 0.0698242C119.776 0.137068 124.264 1.01124 128.332 2.69233ZM105.75 15.1997C103.646 17.2842 102.243 20.1757 101.752 23.7396H127.771C127.49 19.9067 126.158 16.948 123.773 14.9979C121.389 12.9806 118.373 12.0392 114.797 12.0392C110.869 12.0392 107.854 13.1151 105.75 15.1997Z" fill="#020202"/>
<path d="M162.758 39.2704C163.109 41.8257 163.74 43.6413 164.862 44.7844C166.756 46.7345 170.192 47.6759 175.312 47.6759C178.327 47.6759 180.642 47.2724 182.395 46.3983C184.148 45.5241 185.06 44.3137 185.06 42.5654C185.06 40.9515 184.359 39.6739 182.956 38.867C181.553 37.9928 176.294 36.5807 167.176 34.4961C160.584 32.9495 156.026 30.9994 153.29 28.6459C150.625 26.3596 149.293 22.9974 149.293 18.6938C149.293 13.5833 151.397 9.21241 155.605 5.514C159.813 1.81558 165.704 0 173.278 0C180.501 0 186.393 1.41212 190.951 4.16912C195.51 6.92612 198.105 11.7004 198.806 18.4921H183.728C183.517 16.6092 182.956 15.1299 182.115 14.054C180.431 12.1039 177.626 11.0952 173.629 11.0952C170.332 11.0952 168.018 11.5659 166.615 12.5746C165.213 13.5833 164.511 14.7264 164.511 16.004C164.511 17.6851 165.283 18.8955 166.756 19.6352C168.228 20.4421 173.488 21.7198 182.535 23.6698C188.567 25.0147 193.055 27.0993 196.071 29.789C199.016 32.546 200.489 36.0427 200.489 40.2118C200.489 45.7258 198.385 50.1639 194.107 53.6606C189.829 57.1573 183.237 58.8384 174.33 58.8384C165.213 58.8384 158.55 57.0228 154.202 53.3244C149.854 49.626 147.68 44.9861 147.68 39.2704H162.758V39.2704Z" fill="#020202"/>
<path d="M249.022 2.69233C253.019 4.44067 256.386 7.13043 258.981 10.8961C261.365 14.191 262.908 18.0239 263.609 22.3275C264.03 24.8828 264.17 28.5139 264.1 33.2883H222.021C222.232 38.8695 224.266 42.7024 228.053 44.9887C230.367 46.4008 233.102 47.0732 236.398 47.0732C239.835 47.0732 242.64 46.1991 244.814 44.518C246.006 43.5766 247.058 42.3662 247.9 40.6851H263.329C262.908 43.98 261.085 47.275 257.718 50.7044C252.529 56.0839 245.305 58.7736 235.978 58.7736C228.263 58.7736 221.531 56.4874 215.64 51.982C209.748 47.4767 206.803 40.0799 206.803 29.7916C206.803 20.1757 209.468 12.8461 214.728 7.73562C220.058 2.62509 226.931 0.0698242 235.346 0.0698242C240.466 0.137068 244.954 1.01124 249.022 2.69233ZM226.44 15.1997C224.336 17.2842 222.933 20.1757 222.442 23.7396H248.461C248.18 19.9067 246.848 16.948 244.463 14.9979C242.079 12.9806 239.063 12.0392 235.487 12.0392C231.559 12.0392 228.544 13.1151 226.44 15.1997Z" fill="#020202"/>
<path d="M301.626 0.279541C301.836 0.279541 302.257 0.34678 302.958 0.34678V15.2077C301.976 15.0732 301.135 15.006 300.434 15.006C299.662 15.006 299.101 14.9387 298.61 14.9387C292.509 14.9387 288.441 16.8216 286.407 20.6545C285.215 22.8063 284.654 26.1012 284.654 30.5393V57.0334H269.436V1.62442H283.813V11.3075C286.127 7.60913 288.161 5.1211 289.914 3.70898C292.719 1.42268 296.436 0.279541 300.925 0.279541C301.205 0.279541 301.415 0.279541 301.626 0.279541Z" fill="#020202"/>
<path d="M349.539 1.60669H365.739L344.91 56.9484H328.99L308.231 1.60669H325.203L337.195 42.4237L349.539 1.60669Z" fill="#020202"/>
<path d="M411.904 2.69233C415.902 4.44067 419.268 7.13043 421.863 10.8961C424.247 14.191 425.79 18.0239 426.492 22.3275C426.912 24.8828 427.053 28.5139 426.982 33.2883H384.904C385.114 38.8695 387.148 42.7024 390.935 44.9887C393.249 46.4008 395.984 47.0732 399.281 47.0732C402.717 47.0732 405.522 46.1991 407.696 44.518C408.889 43.5766 409.941 42.3662 410.782 40.6851H426.211C425.79 43.98 423.967 47.275 420.6 50.7044C415.411 56.0839 408.187 58.7736 398.86 58.7736C391.145 58.7736 384.413 56.4874 378.522 51.982C372.631 47.4767 369.685 40.0799 369.685 29.7916C369.685 20.1757 372.35 12.8461 377.61 7.73562C382.94 2.62509 389.813 0.0698242 398.229 0.0698242C403.348 0.137068 407.907 1.01124 411.904 2.69233ZM389.322 15.1997C387.218 17.2842 385.815 20.1757 385.324 23.7396H411.343C411.063 19.9067 409.73 16.948 407.346 14.9979C404.961 12.9806 401.946 12.0392 398.369 12.0392C394.441 12.0392 391.496 13.1151 389.322 15.1997Z" fill="#020202"/>
</svg>
