<svg width="567" height="141" viewBox="0 0 567 141" fill="none" xmlns="http://www.w3.org/2000/svg">
<path d="M202.44 56.4062H216.602L224.723 93.3442L233.038 56.4062H247.59L232.064 107.671H217.837L209.456 70.2969L200.946 107.671H186.394L171.387 56.4062H186.394L194.709 93.2196L202.44 56.4062Z" fill="white"/>
<path d="M290.264 57.4122C293.967 59.0318 297.086 61.5234 299.489 65.0116C301.698 68.0638 303.127 71.6143 303.777 75.6009C304.167 77.9679 304.297 81.3316 304.232 85.7542H265.253C265.448 90.9242 267.332 94.4747 270.84 96.5926C272.984 97.9007 275.518 98.5236 278.571 98.5236C281.754 98.5236 284.353 97.7138 286.367 96.1566C287.471 95.2845 288.445 94.1633 289.225 92.606H303.517C303.127 95.6583 301.438 98.7105 298.32 101.887C293.513 106.87 286.821 109.362 278.181 109.362C271.035 109.362 264.798 107.244 259.341 103.071C253.884 98.8973 251.156 92.0454 251.156 82.5151C251.156 73.6076 253.624 66.818 258.497 62.084C263.434 57.3499 269.801 54.9829 277.596 54.9829C282.339 55.0452 286.497 55.855 290.264 57.4122ZM269.346 68.9982C267.397 70.9291 266.098 73.6076 265.643 76.909H289.745C289.485 73.3585 288.251 70.6177 286.042 68.8113C283.833 66.9426 281.039 66.0705 277.726 66.0705C274.088 66.0705 271.295 67.0672 269.346 68.9982Z" fill="white"/>
<path d="M322.155 91.2953C322.48 93.6624 323.065 95.3442 324.104 96.4031C325.858 98.2095 329.042 99.0816 333.784 99.0816C336.577 99.0816 338.721 98.7079 340.345 97.8981C341.97 97.0883 342.814 95.9671 342.814 94.3476C342.814 92.8526 342.164 91.6691 340.865 90.9216C339.566 90.1118 334.693 88.8037 326.248 86.8728C320.141 85.4401 315.919 83.6337 313.385 81.4535C310.916 79.3357 309.682 76.2212 309.682 72.2346C309.682 67.5006 311.631 63.4517 315.529 60.0258C319.427 56.5998 324.884 54.918 331.9 54.918C338.591 54.918 344.048 56.2261 348.271 58.78C352.494 61.3338 354.898 65.7564 355.547 72.0477H341.58C341.385 70.3036 340.865 68.9332 340.086 67.9366C338.526 66.1302 335.928 65.1958 332.225 65.1958C329.171 65.1958 327.028 65.6319 325.728 66.5662C324.429 67.5006 323.779 68.5595 323.779 69.743C323.779 71.3002 324.494 72.4215 325.858 73.1067C327.222 73.8541 332.095 75.0376 340.475 76.8441C346.062 78.0899 350.22 80.0209 353.014 82.5125C355.742 85.0663 357.106 88.3054 357.106 92.1674C357.106 97.2752 355.157 101.386 351.195 104.625C347.232 107.865 341.125 109.422 332.874 109.422C324.429 109.422 318.257 107.74 314.229 104.314C310.202 100.888 308.188 96.59 308.188 91.2953H322.155V91.2953Z" fill="white"/>
<path d="M402.064 57.4122C405.767 59.0318 408.885 61.5234 411.289 65.0116C413.497 68.0638 414.927 71.6143 415.576 75.6009C415.966 77.9679 416.096 81.3316 416.031 85.7542H377.052C377.247 90.9242 379.131 94.4747 382.639 96.5926C384.783 97.9007 387.317 98.5236 390.37 98.5236C393.553 98.5236 396.152 97.7138 398.166 96.1566C399.27 95.2845 400.245 94.1633 401.024 92.606H415.316C414.927 95.6583 413.237 98.7105 410.119 101.887C405.312 106.87 398.62 109.362 389.98 109.362C382.834 109.362 376.597 107.244 371.14 103.071C365.683 98.8973 362.955 92.0454 362.955 82.5151C362.955 73.6076 365.423 66.818 370.296 62.084C375.233 57.3499 381.6 54.9829 389.395 54.9829C394.138 55.0452 398.296 55.855 402.064 57.4122ZM381.145 68.9982C379.196 70.9291 377.897 73.6076 377.442 76.909H401.544C401.284 73.3585 400.05 70.6177 397.841 68.8113C395.632 66.9426 392.839 66.0705 389.525 66.0705C385.887 66.0705 383.094 67.0672 381.145 68.9982Z" fill="white"/>
<path d="M450.792 55.177C450.987 55.177 451.377 55.2393 452.027 55.2393V69.0054C451.117 68.8808 450.337 68.8185 449.688 68.8185C448.973 68.8185 448.454 68.7562 447.999 68.7562C442.347 68.7562 438.579 70.5004 436.695 74.0509C435.591 76.0442 435.071 79.0964 435.071 83.2076V107.75H420.974V56.4228H434.291V65.3926C436.435 61.9666 438.319 59.6619 439.943 58.3538C442.542 56.2359 445.985 55.177 450.143 55.177C450.402 55.177 450.597 55.177 450.792 55.177Z" fill="white"/>
<path d="M495.175 56.4062H510.182L490.887 107.671H476.14L456.911 56.4062H472.632L483.741 94.2163L495.175 56.4062Z" fill="white"/>
<path d="M552.947 57.4122C556.65 59.0318 559.768 61.5234 562.172 65.0116C564.38 68.0638 565.81 71.6143 566.459 75.6009C566.849 77.9679 566.979 81.3316 566.914 85.7542H527.935C528.13 90.9242 530.014 94.4747 533.522 96.5926C535.666 97.9007 538.199 98.5236 541.253 98.5236C544.436 98.5236 547.035 97.7138 549.049 96.1566C550.153 95.2845 551.128 94.1633 551.907 92.606H566.199C565.81 95.6583 564.12 98.7105 561.002 101.887C556.195 106.87 549.503 109.362 540.863 109.362C533.717 109.362 527.48 107.244 522.023 103.071C516.566 98.8973 513.838 92.0454 513.838 82.5151C513.838 73.6076 516.306 66.818 521.179 62.084C526.116 57.3499 532.483 54.9829 540.278 54.9829C545.021 55.0452 549.244 55.855 552.947 57.4122ZM532.028 68.9982C530.079 70.9291 528.78 73.6076 528.325 76.909H552.427C552.167 73.3585 550.933 70.6177 548.724 68.8113C546.515 66.9426 543.721 66.0705 540.408 66.0705C536.77 66.0705 534.042 67.0672 532.028 68.9982Z" fill="white"/>
<path d="M131.395 69.033L106.904 98.8699C105.085 101.05 101.706 101.05 99.8874 98.8699L78.1892 72.3966C77.0198 70.964 75.3307 70.1542 73.4467 70.1542C71.6277 70.1542 69.9386 70.9017 68.7043 72.2098C68.6393 72.2721 68.5744 72.3343 68.5094 72.3966L46.8112 98.8076C44.9922 100.988 41.614 100.988 39.795 98.8076L15.3033 68.9707L25.8276 56.2012L43.3681 34.8357L71.043 1.0745C72.2124 -0.358168 74.4862 -0.358168 75.7205 1.0745L103.395 34.8357L120.936 56.2012L131.395 69.033Z" fill="white"/>
<path d="M146.154 90.5143L120.883 121.286L105.746 139.724C104.577 141.156 102.303 141.156 101.069 139.724L85.932 121.286L75.7326 108.828C74.5632 107.395 72.2245 107.395 71.0551 108.828L60.8557 121.286L45.7189 139.724C44.5495 141.156 42.2108 141.156 41.0414 139.724L25.9047 121.286L0.633406 90.5143C-0.211135 89.4554 -0.211135 88.0227 0.633406 86.9637L6.28533 80.1118L11.3526 73.9451L38.6377 107.146L38.7027 107.208C39.8721 108.578 41.6261 109.388 43.5101 109.326C45.3941 109.326 47.0832 108.516 48.2525 107.084L69.9507 80.6724C71.7697 78.4923 75.1479 78.4923 76.9669 80.6724L98.7301 107.146L98.795 107.208C99.9644 108.578 101.653 109.326 103.537 109.326H103.602C105.486 109.326 107.175 108.516 108.345 107.084L135.565 73.9451L140.632 80.1118L146.284 86.9637C146.999 88.0227 146.999 89.4554 146.154 90.5143Z" fill="white"/>
</svg>
