<svg width="101" height="26" viewBox="0 0 101 26" fill="none" xmlns="http://www.w3.org/2000/svg">
<path d="M36.0651 10.9189H38.5882L40.0349 17.4995L41.5163 10.9189H44.1088L41.3427 20.0519H38.8081L37.3151 13.3936L35.799 20.0519H33.2065L30.533 10.9189H33.2065L34.6879 17.4773L36.0651 10.9189Z" fill="#020202"/>
<path d="M51.7112 11.0983C52.3709 11.3868 52.9264 11.8307 53.3547 12.4522C53.7482 12.9959 54.0028 13.6285 54.1185 14.3387C54.188 14.7604 54.2111 15.3596 54.1995 16.1475H47.2554C47.2901 17.0686 47.6257 17.7011 48.2507 18.0784C48.6326 18.3114 49.084 18.4224 49.628 18.4224C50.1951 18.4224 50.658 18.2781 51.0168 18.0007C51.2135 17.8454 51.3872 17.6456 51.526 17.3682H54.0722C54.0028 17.9119 53.7019 18.4557 53.1463 19.0217C52.2899 19.9094 51.0978 20.3533 49.5585 20.3533C48.2854 20.3533 47.1744 19.976 46.2022 19.2325C45.23 18.489 44.7439 17.2683 44.7439 15.5705C44.7439 13.9836 45.1837 12.774 46.0517 11.9306C46.9313 11.0872 48.0655 10.6655 49.4544 10.6655C50.2992 10.6766 51.0399 10.8209 51.7112 11.0983ZM47.9845 13.1624C47.6373 13.5064 47.4058 13.9836 47.3248 14.5717H51.6186C51.5723 13.9392 51.3524 13.4509 50.9589 13.1291C50.5654 12.7962 50.0678 12.6408 49.4775 12.6408C48.8294 12.6408 48.3317 12.8184 47.9845 13.1624Z" fill="#020202"/>
<path d="M57.3926 17.1345C57.4505 17.5562 57.5547 17.8558 57.7398 18.0445C58.0523 18.3663 58.6194 18.5217 59.4643 18.5217C59.962 18.5217 60.3439 18.4551 60.6333 18.3108C60.9226 18.1666 61.0731 17.9668 61.0731 17.6783C61.0731 17.412 60.9573 17.2011 60.7259 17.0679C60.4944 16.9237 59.6264 16.6906 58.1218 16.3466C57.0339 16.0914 56.2816 15.7696 55.8302 15.3812C55.3904 15.0039 55.1705 14.449 55.1705 13.7388C55.1705 12.8954 55.5177 12.1741 56.2121 11.5638C56.9065 10.9534 57.8787 10.6538 59.1287 10.6538C60.3208 10.6538 61.293 10.8868 62.0453 11.3418C62.7975 11.7968 63.2258 12.5847 63.3415 13.7055H60.8532C60.8184 13.3948 60.7259 13.1507 60.587 12.9731C60.3092 12.6513 59.8463 12.4848 59.1866 12.4848C58.6426 12.4848 58.2607 12.5625 58.0292 12.729C57.7977 12.8954 57.682 13.0841 57.682 13.2949C57.682 13.5724 57.8093 13.7721 58.0523 13.8942C58.2954 14.0273 59.1634 14.2382 60.6564 14.56C61.6518 14.7819 62.3925 15.126 62.8901 15.5698C63.3762 16.0248 63.6193 16.6019 63.6193 17.2899C63.6193 18.1999 63.2721 18.9323 62.5661 19.5093C61.8601 20.0864 60.7722 20.3638 59.3023 20.3638C57.7977 20.3638 56.6982 20.0642 55.9806 19.4538C55.2631 18.8435 54.9043 18.0778 54.9043 17.1345H57.3926Z" fill="#020202"/>
<path d="M71.6287 11.0983C72.2884 11.3868 72.8439 11.8307 73.2721 12.4522C73.6657 12.9959 73.9203 13.6285 74.036 14.3387C74.1054 14.7604 74.1286 15.3596 74.117 16.1475H67.1729C67.2076 17.0686 67.5432 17.7011 68.1682 18.0784C68.5501 18.3114 69.0015 18.4224 69.5454 18.4224C70.1125 18.4224 70.5755 18.2781 70.9343 18.0007C71.131 17.8454 71.3046 17.6456 71.4435 17.3682H73.9897C73.9203 17.9119 73.6194 18.4557 73.0638 19.0217C72.2074 19.9094 71.0153 20.3533 69.476 20.3533C68.2029 20.3533 67.0918 19.976 66.1197 19.2325C65.1475 18.489 64.6614 17.2683 64.6614 15.5705C64.6614 13.9836 65.1012 12.774 65.9692 11.9306C66.8488 11.0872 67.983 10.6655 69.3718 10.6655C70.2167 10.6766 70.9574 10.8209 71.6287 11.0983ZM67.902 13.1624C67.5548 13.5064 67.3233 13.9836 67.2423 14.5717H71.5361C71.4898 13.9392 71.2699 13.4509 70.8764 13.1291C70.4829 12.7962 69.9852 12.6408 69.395 12.6408C68.7469 12.6408 68.2492 12.8184 67.902 13.1624Z" fill="#020202"/>
<path d="M80.3098 10.6997C80.3445 10.6997 80.414 10.7108 80.5297 10.7108V13.1633C80.3677 13.1411 80.2288 13.13 80.1131 13.13C79.9858 13.13 79.8932 13.1189 79.8122 13.1189C78.8053 13.1189 78.134 13.4296 77.7984 14.0621C77.6016 14.4172 77.509 14.961 77.509 15.6934V20.0657H74.9976V10.9216H77.3701V12.5196C77.7521 11.9093 78.0877 11.4987 78.377 11.2657C78.84 10.8884 79.4534 10.6997 80.1941 10.6997C80.2404 10.6997 80.2751 10.6997 80.3098 10.6997Z" fill="#020202"/>
<path d="M88.2165 10.9189H90.89L87.4527 20.0519H84.8254L81.3997 10.9189H84.2005L86.1796 17.6549L88.2165 10.9189Z" fill="#020202"/>
<path d="M98.5088 11.0983C99.1685 11.3868 99.7241 11.8307 100.152 12.4522C100.546 12.9959 100.8 13.6285 100.916 14.3387C100.986 14.7604 101.009 15.3596 100.997 16.1475H94.053C94.0877 17.0686 94.4233 17.7011 95.0483 18.0784C95.4303 18.3114 95.8816 18.4224 96.4256 18.4224C96.9927 18.4224 97.4556 18.2781 97.8144 18.0007C98.0112 17.8454 98.1848 17.6456 98.3237 17.3682H100.87C100.8 17.9119 100.5 18.4557 99.944 19.0217C99.0875 19.9094 97.8954 20.3533 96.3561 20.3533C95.083 20.3533 93.972 19.976 92.9998 19.2325C92.0276 18.489 91.5415 17.2683 91.5415 15.5705C91.5415 13.9836 91.9813 12.774 92.8493 11.9306C93.7289 11.0872 94.8631 10.6655 96.252 10.6655C97.0969 10.6766 97.8491 10.8209 98.5088 11.0983ZM94.7821 13.1624C94.4349 13.5064 94.2034 13.9836 94.1224 14.5717H98.4163C98.37 13.9392 98.1501 13.4509 97.7566 13.1291C97.363 12.7962 96.8654 12.6408 96.2751 12.6408C95.627 12.6408 95.1409 12.8184 94.7821 13.1624Z" fill="#020202"/>
<path d="M23.4084 13.1685L19.0451 18.484C18.7211 18.8724 18.1192 18.8724 17.7952 18.484L13.9296 13.7678C13.7213 13.5125 13.4203 13.3683 13.0847 13.3683C12.7606 13.3683 12.4597 13.5014 12.2398 13.7345C12.2283 13.7456 12.2167 13.7567 12.2051 13.7678L8.33952 18.4729C8.01546 18.8613 7.41363 18.8613 7.08957 18.4729L2.72632 13.1574L4.60124 10.8825L7.72612 7.07619L12.6565 1.06154C12.8648 0.806309 13.2699 0.806309 13.4898 1.06154L18.4201 7.07619L21.545 10.8825L23.4084 13.1685Z" fill="#020202"/>
<path d="M26.0378 16.9953L21.5356 22.4773L18.839 25.7621C18.6306 26.0173 18.2256 26.0173 18.0057 25.7621L15.309 22.4773L13.492 20.2579C13.2836 20.0026 12.867 20.0026 12.6586 20.2579L10.8416 22.4773L8.14494 25.7621C7.93661 26.0173 7.51996 26.0173 7.31164 25.7621L4.61498 22.4773L0.112843 16.9953C-0.0376143 16.8067 -0.0376143 16.5514 0.112843 16.3628L1.11975 15.1421L2.02249 14.0435L6.88341 19.9583L6.89499 19.9693C7.10331 20.2135 7.4158 20.3577 7.75143 20.3467C8.08707 20.3467 8.38798 20.2024 8.59631 19.9472L12.4619 15.242C12.786 14.8536 13.3878 14.8536 13.7119 15.242L17.589 19.9583L17.6006 19.9693C17.8089 20.2135 18.1098 20.3467 18.4455 20.3467H18.457C18.7927 20.3467 19.0936 20.2024 19.3019 19.9472L24.1513 14.0435L25.054 15.1421L26.0609 16.3628C26.1882 16.5514 26.1882 16.8067 26.0378 16.9953Z" fill="#020202"/>
</svg>
