<svg width="101" height="34" viewBox="0 0 101 34" fill="none" xmlns="http://www.w3.org/2000/svg">
<path d="M22.1235 2.65039H11.2714C9.5494 2.65039 7.95849 3.56899 7.09773 5.06014L1.67194 14.4582C0.811177 15.9493 0.811177 17.7865 1.67194 19.2777L7.09773 28.6757C7.95849 30.1669 9.54989 31.0855 11.2714 31.0855H22.1235C23.8455 31.0855 25.4364 30.1669 26.2972 28.6757L31.7229 19.2777C32.5837 17.7865 32.5837 15.9493 31.7229 14.4582L26.2972 5.06014C25.4364 3.56899 23.8455 2.65039 22.1235 2.65039Z" fill="#3C82E2"/>
<path d="M9.78376 14.6208C9.65941 14.7427 9.54808 14.8844 9.45458 15.0469L7.75377 17.9925C6.99663 19.3035 7.94318 20.9421 9.45699 20.9421H9.70568C9.8387 20.9421 9.94666 20.8341 9.94666 20.7011V18.7463V18.1135V14.7688V14.6902C9.94618 14.6064 9.844 14.5615 9.78376 14.6208Z" fill="white"/>
<path d="M25.9834 17.9926L24.2826 15.0469C24.0951 14.7221 23.8378 14.4782 23.5452 14.3144C23.4806 14.2782 23.4006 14.324 23.4006 14.3982V14.7693V18.1141V18.7469V20.7017C23.4006 20.8347 23.5086 20.9426 23.6416 20.9426H24.2802C25.794 20.9422 26.7401 19.3035 25.9834 17.9926Z" fill="white"/>
<path d="M22.3805 20.3885C22.0981 20.5905 21.7593 20.776 21.3679 20.9423C21.3414 20.9534 21.3154 20.9649 21.2889 20.9755C20.0493 21.485 18.4102 21.7654 16.6737 21.7654C14.9373 21.7654 13.2987 21.485 12.0586 20.9755C12.0316 20.9644 12.0056 20.9534 11.9796 20.9423C11.5882 20.776 11.2499 20.5905 10.967 20.3885C10.9029 20.3427 10.8137 20.3876 10.8137 20.4661V20.9423V22.7236C10.8137 23.2118 11.4022 23.7453 12.3882 24.1501C13.5256 24.6176 15.0476 24.875 16.6737 24.875C18.2998 24.875 19.8214 24.6176 20.9592 24.1501C21.9453 23.7453 22.5338 23.2118 22.5338 22.7236V20.9423V20.4661C22.5333 20.3876 22.4446 20.3427 22.3805 20.3885Z" fill="white"/>
<path d="M22.382 16.4104C22.0803 16.6263 21.7145 16.8239 21.2889 16.9989C20.7419 17.2235 20.1168 17.4037 19.4406 17.5348C18.5837 17.7011 17.6444 17.7888 16.6742 17.7888C15.865 17.7888 15.0775 17.7271 14.3406 17.6105C13.4972 17.477 12.7208 17.2712 12.0591 16.9989C11.6335 16.8239 11.2677 16.6263 10.966 16.4104C10.9024 16.3651 10.8142 16.4114 10.8142 16.4895V18.7469C10.8142 18.8245 10.8291 18.9031 10.8581 18.9816C11.0108 19.4009 11.5593 19.8327 12.3887 20.1735C12.8447 20.361 13.3632 20.5137 13.9247 20.6304C14.7638 20.8048 15.7002 20.8979 16.6742 20.8979C17.7639 20.8979 18.8064 20.7817 19.7187 20.5648C20.1674 20.4583 20.5848 20.3272 20.9597 20.1735C21.7892 19.8327 22.3376 19.4009 22.4904 18.9816C22.5193 18.9026 22.5342 18.824 22.5342 18.7469V16.4895C22.5333 16.4114 22.4451 16.3651 22.382 16.4104Z" fill="white"/>
<path d="M22.4725 10.116C22.459 10.0847 22.4436 10.0534 22.4258 10.0225C22.3993 9.97576 22.368 9.92853 22.3323 9.88178C22.3082 9.85045 22.2827 9.81961 22.2547 9.78828C21.9896 9.49381 21.5443 9.20802 20.9587 8.96752C20.2479 8.67546 19.3866 8.46533 18.4439 8.3487C18.2555 8.32556 18.0637 8.3058 17.869 8.2899C17.48 8.25857 17.08 8.24219 16.6732 8.24219C16.2665 8.24219 15.8669 8.25809 15.4775 8.2899C15.2828 8.3058 15.091 8.32508 14.9026 8.3487C13.9599 8.46533 13.0986 8.67546 12.3878 8.96752C11.8022 9.20802 11.3573 9.49381 11.0918 9.78828C11.0638 9.81913 11.0378 9.85045 11.0142 9.88178C10.9785 9.92853 10.9472 9.97528 10.9207 10.0225C10.9029 10.0538 10.8874 10.0852 10.874 10.116C10.8677 10.1305 10.8619 10.1449 10.8566 10.1594C10.8277 10.2384 10.8127 10.317 10.8127 10.3941V11.9209V14.7688C10.8127 14.8463 10.8277 14.9249 10.8566 15.0035C11.0094 15.4228 11.5578 15.8546 12.3873 16.1953C12.8008 16.3655 13.2659 16.5071 13.7676 16.619C14.6457 16.8151 15.638 16.9197 16.6728 16.9197C17.8902 16.9197 19.0488 16.7756 20.0319 16.5067C20.3621 16.4165 20.672 16.3124 20.9578 16.1948C21.7872 15.8541 22.3357 15.4223 22.4884 15.003C22.5174 14.9239 22.5323 14.8454 22.5323 14.7683V10.3936C22.5323 10.316 22.5174 10.2375 22.4884 10.1589C22.4846 10.1449 22.4788 10.1305 22.4725 10.116ZM18.6237 12.5754C18.8126 12.5754 18.9837 12.654 19.1061 12.7793C19.2107 12.8867 19.2801 13.0284 19.295 13.186C19.297 13.2072 19.2984 13.2284 19.2984 13.2501C19.2984 13.6222 18.9958 13.9249 18.6237 13.9249C18.2897 13.9249 18.0121 13.6805 17.9591 13.361C17.9533 13.3248 17.949 13.2877 17.949 13.2501C17.949 13.1296 17.9813 13.0164 18.0367 12.9185C18.1523 12.7137 18.3721 12.5754 18.6237 12.5754ZM14.144 13.2029C14.1551 13.0453 14.2206 12.9022 14.3218 12.7928C14.4452 12.6593 14.6211 12.5754 14.8163 12.5754C15.0712 12.5754 15.2939 12.7176 15.4086 12.9272C15.4611 13.0231 15.491 13.133 15.491 13.2501C15.491 13.2901 15.4867 13.3292 15.4799 13.3677C15.424 13.6839 15.1479 13.9249 14.8163 13.9249C14.4442 13.9249 14.1416 13.6222 14.1416 13.2501C14.1416 13.2342 14.1425 13.2183 14.144 13.2029Z" fill="white"/>
<path d="M39.4504 9.05846H43.9394C44.9453 9.03207 45.9505 9.13081 46.932 9.3524C47.7769 9.5664 48.5566 9.98381 49.2032 10.5683C50.1345 11.4454 50.8578 12.5198 51.3202 13.7127C51.7825 14.9056 51.9722 16.1868 51.8752 17.4625C51.8856 18.3995 51.8006 19.3352 51.6214 20.255C51.4573 21.0484 51.1782 21.8136 50.7931 22.5263C50.4216 23.2078 49.9384 23.822 49.3636 24.3434C48.9213 24.7452 48.4215 25.0784 47.8806 25.3321C47.321 25.5776 46.7331 25.7526 46.1304 25.8532C45.4359 25.9544 44.7348 26.0036 44.0329 26.0002H39.5306C39.0423 26.03 38.5545 25.9333 38.1144 25.7196C37.8126 25.5431 37.5919 25.2553 37.4999 24.918C37.3868 24.482 37.3373 24.032 37.3529 23.5819V11.1561C37.3259 10.8695 37.3557 10.5804 37.4405 10.3053C37.5253 10.0302 37.6635 9.77449 37.8472 9.55282C38.0689 9.36913 38.3245 9.23093 38.5996 9.1461C38.8747 9.06128 39.1638 9.0315 39.4504 9.05846V9.05846ZM42.6435 11.7307H41.5212C41.4078 11.7307 41.2991 11.7757 41.2189 11.8559C41.1387 11.9361 41.0937 12.0448 41.0937 12.1582V23.2746C41.0949 23.3038 41.1034 23.3323 41.1186 23.3573C41.1337 23.3824 41.1549 23.4032 41.1802 23.4178C41.2055 23.4325 41.2342 23.4405 41.2634 23.4412C41.2927 23.4418 41.3216 23.4351 41.3475 23.4215C41.9108 23.1122 42.3743 22.6487 42.6835 22.0854L45.6762 16.888C45.9666 16.361 46.1146 15.7673 46.1055 15.1656C46.0964 14.5639 45.9305 13.9749 45.6243 13.4569C45.3181 12.9389 44.8821 12.5096 44.3594 12.2116C43.8366 11.9136 43.2452 11.757 42.6435 11.7574V11.7307Z" fill="#3C82E2"/>
<path d="M62.1223 26.0272H56.9386C56.6489 26.0564 56.3561 26.0265 56.0783 25.9392C55.8004 25.8519 55.5431 25.7091 55.3221 25.5195C54.9623 25.0664 54.7901 24.4925 54.8411 23.9161V11.1564C54.7808 10.575 54.9538 9.99354 55.3221 9.53971C55.7684 9.17692 56.3394 9.00416 56.9119 9.05871H62.4163C63.1184 9.04635 63.8202 9.09553 64.5138 9.20568C65.0804 9.29117 65.625 9.48632 66.117 9.78021C66.5176 10.0266 66.8781 10.333 67.1858 10.6888C67.4848 11.0539 67.7238 11.4643 67.8939 11.9046C68.07 12.37 68.1605 12.8634 68.1611 13.361C68.1758 14.1721 67.9381 14.9678 67.481 15.6379C67.0239 16.3081 66.3698 16.8197 65.6093 17.102C66.565 17.2877 67.4243 17.8052 68.0355 18.5631C68.6467 19.321 68.9703 20.2705 68.9493 21.2439C68.9612 22.1507 68.7106 23.0416 68.2279 23.8093C67.7387 24.513 67.0568 25.0605 66.2639 25.3859C65.6883 25.6109 65.087 25.7635 64.4737 25.8401C63.6951 25.9557 62.9095 26.0182 62.1223 26.0272V26.0272ZM58.288 11.6374V16.0332H61.441C62.113 16.0574 62.7847 15.9763 63.4316 15.7927C63.8932 15.6343 64.276 15.3041 64.5004 14.8707C64.69 14.5371 64.7868 14.1588 64.781 13.7751C64.8308 13.4251 64.77 13.0683 64.6071 12.7545C64.4442 12.4407 64.1874 12.1856 63.8725 12.0249C62.9792 11.6997 62.0294 11.5588 61.0802 11.6107L58.288 11.6374ZM61.8685 18.4916H58.288V23.4485H62.0021C64.3267 23.4485 65.4891 22.6068 65.4891 20.9366C65.516 20.5724 65.4461 20.2076 65.2866 19.8791C65.1271 19.5506 64.8835 19.2701 64.5806 19.0661C63.7481 18.6247 62.8085 18.4256 61.8685 18.4916V18.4916Z" fill="#3C82E2"/>
<path d="M80.5324 20.6694H74.3468C74.3458 21.3273 74.4967 21.9766 74.7876 22.5667C75.0359 23.0792 75.4252 23.5103 75.9099 23.8093C76.3804 24.0827 76.9154 24.2257 77.4596 24.2235C77.8068 24.2228 78.1525 24.1779 78.4884 24.0898C78.8096 23.9963 79.1155 23.8567 79.3968 23.6757C79.6788 23.4848 79.9508 23.2797 80.2118 23.061L81.1737 22.1792C81.3745 22.0327 81.6205 21.9617 81.8684 21.9788C82.1559 21.9621 82.4386 22.058 82.6567 22.246C82.7582 22.341 82.8373 22.4575 82.8881 22.5869C82.939 22.7164 82.9603 22.8555 82.9506 22.9942C82.9284 23.3516 82.8132 23.697 82.6166 23.9963C82.3527 24.4241 82.0078 24.7963 81.6012 25.0919C81.0885 25.478 80.5151 25.776 79.9045 25.9737C79.1444 26.2148 78.3505 26.3321 77.5532 26.3211C76.6858 26.3717 75.8173 26.2437 75.0015 25.9449C74.1857 25.6461 73.4399 25.183 72.8104 24.5842C72.2292 23.9497 71.7799 23.206 71.4886 22.3963C71.1973 21.5866 71.0699 20.7271 71.1136 19.8678C71.1076 18.9814 71.2522 18.1004 71.5412 17.2624C71.7983 16.5031 72.2126 15.8066 72.7569 15.2181C73.303 14.6311 73.9743 14.1744 74.7208 13.882C75.5482 13.5678 76.4278 13.4137 77.3127 13.4278C78.4225 13.3998 79.5198 13.6672 80.4924 14.2027C81.2942 14.6656 81.9621 15.3289 82.4305 16.1276C82.8989 16.9263 83.1518 17.833 83.1644 18.7588C83.1644 19.5471 82.9372 20.0949 82.483 20.2953C81.8723 20.5749 81.2032 20.7032 80.5324 20.6694V20.6694ZM74.3468 18.8657H80.0782C80.081 17.9827 79.7737 17.1268 79.2098 16.4474C78.9499 16.1817 78.6374 15.9732 78.2923 15.8352C77.9473 15.6971 77.5772 15.6326 77.2058 15.6457C76.8432 15.6336 76.4823 15.7001 76.1479 15.8408C75.8134 15.9815 75.5135 16.193 75.2686 16.4607C74.7051 17.1391 74.3811 17.9844 74.3468 18.8657V18.8657Z" fill="#3C82E2"/>
<path d="M94.6272 20.6693H88.4415C88.4359 21.3263 88.5822 21.9756 88.869 22.5666C89.1263 23.0772 89.5192 23.5071 90.0046 23.8092C90.4703 24.0827 91.001 24.2258 91.541 24.2234C91.8926 24.2218 92.2426 24.177 92.5831 24.0897C92.9033 23.9935 93.2089 23.8542 93.4916 23.6756C93.7716 23.488 94.0394 23.2827 94.2932 23.0609C94.5426 22.8472 94.8632 22.5532 95.2551 22.1791C95.4573 22.0356 95.7023 21.965 95.9498 21.9787C96.0924 21.969 96.2354 21.9876 96.3707 22.0335C96.506 22.0794 96.6308 22.1516 96.7381 22.2459C96.8413 22.3403 96.9223 22.4563 96.9755 22.5856C97.0286 22.715 97.0524 22.8545 97.0454 22.9941C97.0337 23.3663 96.928 23.7294 96.7381 24.0497C96.4742 24.4775 96.1293 24.8496 95.7227 25.1453C95.2067 25.5339 94.6285 25.8321 94.0126 26.0271C93.2527 26.269 92.4587 26.3864 91.6613 26.3745C90.796 26.4248 89.9296 26.2966 89.116 25.9978C88.3023 25.699 87.5589 25.236 86.9318 24.6375C86.3481 24.0047 85.8972 23.2613 85.6058 22.4512C85.3144 21.6411 85.1883 20.7808 85.2351 19.9211C85.2315 19.036 85.3713 18.1561 85.6493 17.3157C85.9117 16.5589 86.3253 15.8634 86.865 15.2715C87.4132 14.6806 88.0896 14.2235 88.8423 13.9354C89.6545 13.6124 90.5201 13.4448 91.3941 13.441C92.5036 13.4163 93.6001 13.6835 94.5738 14.216C95.407 14.6983 96.0911 15.401 96.551 16.2468C96.9791 17.0204 97.2087 17.888 97.219 18.7721C97.219 19.5604 96.9919 20.1082 96.5377 20.3086C95.9376 20.5758 95.2834 20.6994 94.6272 20.6693V20.6693ZM88.4415 18.8656H94.173C94.1654 17.9822 93.854 17.1282 93.2912 16.4473C93.0359 16.1792 92.7261 15.969 92.3827 15.8307C92.0394 15.6924 91.6704 15.6293 91.3006 15.6456C90.938 15.6335 90.577 15.7 90.2426 15.8407C89.9082 15.9814 89.6082 16.1929 89.3633 16.4606C88.7999 17.139 88.4759 17.9843 88.4415 18.8656V18.8656Z" fill="#3C82E2"/>
</svg>
