<svg width="700" height="700" viewBox="0 0 700 700" fill="none" xmlns="http://www.w3.org/2000/svg">
<path d="M419.249 169H280.751C258.774 169 238.47 180.723 227.485 199.754L158.239 319.695C147.254 338.726 147.254 362.173 158.239 381.204L227.485 501.145C238.47 520.175 258.78 531.899 280.751 531.899H419.249C441.226 531.899 461.53 520.175 472.515 501.145L541.761 381.204C552.746 362.173 552.746 338.726 541.761 319.695L472.515 199.754C461.53 180.723 441.226 169 419.249 169Z" fill="#3C82E2"/>
<path d="M261.763 321.768C260.176 323.324 258.755 325.133 257.562 327.206L235.856 364.8C226.193 381.53 238.273 402.443 257.593 402.443H260.767C262.464 402.443 263.842 401.065 263.842 399.367V374.419V366.343V323.657V322.654C263.836 321.584 262.532 321.012 261.763 321.768Z" fill="white"/>
<path d="M468.511 364.8L446.805 327.206C444.412 323.061 441.128 319.948 437.394 317.857C436.57 317.396 435.549 317.98 435.549 318.927V323.664V366.35V374.426V399.374C435.549 401.072 436.927 402.45 438.624 402.45H446.774C466.094 402.443 478.168 381.531 468.511 364.8Z" fill="white"/>
<path d="M422.527 395.375C418.923 397.953 414.599 400.321 409.604 402.443C409.266 402.584 408.934 402.732 408.596 402.867C392.776 409.369 371.857 412.948 349.695 412.948C327.534 412.948 306.621 409.369 290.795 402.867C290.451 402.726 290.119 402.584 289.787 402.443C284.792 400.321 280.474 397.953 276.864 395.375C276.046 394.791 274.908 395.363 274.908 396.366V402.443V425.176C274.908 431.407 282.418 438.216 295.002 443.383C309.518 449.349 328.943 452.634 349.695 452.634C370.448 452.634 389.866 449.349 404.389 443.383C416.973 438.216 424.483 431.407 424.483 425.176V402.443V396.366C424.477 395.363 423.345 394.791 422.527 395.375Z" fill="white"/>
<path d="M422.545 344.607C418.695 347.362 414.027 349.884 408.595 352.117C401.614 354.983 393.637 357.283 385.007 358.956C374.071 361.079 362.083 362.198 349.701 362.198C339.374 362.198 329.324 361.411 319.919 359.922C309.155 358.218 299.246 355.592 290.801 352.117C285.37 349.884 280.701 347.362 276.851 344.607C276.039 344.028 274.914 344.619 274.914 345.615V374.426C274.914 375.416 275.104 376.419 275.473 377.421C277.423 382.772 284.423 388.284 295.008 392.632C300.827 395.025 307.445 396.975 314.611 398.463C325.319 400.69 337.271 401.877 349.701 401.877C363.608 401.877 376.913 400.395 388.556 397.627C394.282 396.267 399.609 394.594 404.394 392.632C414.98 388.284 421.98 382.772 423.929 377.421C424.298 376.413 424.489 375.41 424.489 374.426V345.615C424.477 344.619 423.351 344.028 422.545 344.607Z" fill="white"/>
<path d="M423.702 264.277C423.53 263.877 423.333 263.477 423.105 263.083C422.767 262.487 422.367 261.884 421.912 261.287C421.605 260.888 421.279 260.494 420.922 260.094C417.539 256.336 411.856 252.689 404.382 249.619C395.31 245.892 384.318 243.21 372.287 241.722C369.883 241.426 367.434 241.174 364.95 240.971C359.986 240.571 354.881 240.362 349.689 240.362C344.498 240.362 339.399 240.565 334.429 240.971C331.944 241.174 329.496 241.42 327.091 241.722C315.06 243.21 304.069 245.892 294.996 249.619C287.523 252.689 281.846 256.336 278.457 260.094C278.1 260.488 277.768 260.888 277.467 261.287C277.011 261.884 276.612 262.481 276.273 263.083C276.046 263.483 275.849 263.883 275.677 264.277C275.597 264.461 275.523 264.646 275.455 264.83C275.086 265.839 274.896 266.842 274.896 267.826V287.312V323.657C274.896 324.647 275.086 325.65 275.455 326.652C277.405 332.003 284.405 337.515 294.99 341.863C300.268 344.034 306.203 345.843 312.606 347.27C323.813 349.773 336.477 351.108 349.683 351.108C365.22 351.108 380.007 349.269 392.554 345.837C396.768 344.686 400.723 343.358 404.37 341.857C414.956 337.508 421.955 331.997 423.905 326.646C424.274 325.637 424.465 324.635 424.465 323.651V267.82C424.465 266.829 424.274 265.827 423.905 264.824C423.856 264.646 423.782 264.461 423.702 264.277ZM374.582 295.664C376.993 295.664 379.176 296.667 380.739 298.266C382.073 299.638 382.959 301.446 383.15 303.457C383.174 303.728 383.193 303.999 383.193 304.276C383.193 309.024 379.33 312.887 374.582 312.887C370.319 312.887 366.776 309.768 366.1 305.69C366.026 305.229 365.971 304.755 365.971 304.276C365.971 302.738 366.383 301.292 367.09 300.044C368.566 297.43 371.371 295.664 374.582 295.664ZM317.41 303.673C317.551 301.661 318.388 299.835 319.68 298.438C321.254 296.735 323.499 295.664 325.99 295.664C329.244 295.664 332.086 297.479 333.55 300.154C334.22 301.378 334.601 302.781 334.601 304.276C334.601 304.786 334.546 305.284 334.46 305.776C333.746 309.811 330.222 312.887 325.99 312.887C321.242 312.887 317.379 309.024 317.379 304.276C317.379 304.073 317.391 303.87 317.41 303.673Z" fill="white"/>
</svg>
