<svg width="700" height="700" viewBox="0 0 700 700" fill="none" xmlns="http://www.w3.org/2000/svg">
<g filter="url(#filter0_ddd_20_605)">
<path d="M499.437 347.168L436.415 423.945C431.734 429.555 423.041 429.555 418.361 423.945L362.526 355.824C359.517 352.137 355.171 350.054 350.323 350.054C345.642 350.054 341.296 351.977 338.12 355.343C337.953 355.503 337.785 355.664 337.618 355.824L281.784 423.785C277.103 429.395 268.41 429.395 263.73 423.785L200.707 347.008L227.789 314.149L272.924 259.171L344.138 172.296C347.147 168.61 352.998 168.61 356.174 172.296L427.388 259.171L472.523 314.149L499.437 347.168Z" fill="#020202"/>
<path d="M537.415 402.445L472.387 481.626L433.437 529.071C430.428 532.758 424.577 532.758 421.401 529.071L382.45 481.626L356.205 449.569C353.196 445.882 347.178 445.882 344.169 449.569L317.923 481.626L278.973 529.071C275.964 532.758 269.946 532.758 266.937 529.071L227.987 481.626L162.958 402.445C160.785 399.72 160.785 396.033 162.958 393.308L177.502 375.677L190.541 359.808L260.752 445.241L260.919 445.402C263.928 448.928 268.441 451.012 273.289 450.851C278.137 450.851 282.483 448.768 285.493 445.081L341.327 377.119C346.008 371.509 354.7 371.509 359.381 377.119L415.382 445.241L415.55 445.402C418.559 448.928 422.905 450.851 427.753 450.851H427.92C432.768 450.851 437.114 448.768 440.123 445.081L510.167 359.808L523.206 375.677L537.75 393.308C539.589 396.033 539.589 399.72 537.415 402.445Z" fill="#020202"/>
</g>
<defs>
<filter id="filter0_ddd_20_605" x="146.328" y="154.531" width="407.762" height="392.305" filterUnits="userSpaceOnUse" color-interpolation-filters="sRGB">
<feFlood flood-opacity="0" result="BackgroundImageFix"/>
<feColorMatrix in="SourceAlpha" type="matrix" values="0 0 0 0 0 0 0 0 0 0 0 0 0 0 0 0 0 0 127 0" result="hardAlpha"/>
<feOffset/>
<feGaussianBlur stdDeviation="2"/>
<feComposite in2="hardAlpha" operator="out"/>
<feColorMatrix type="matrix" values="0 0 0 0 0 0 0 0 0 0 0 0 0 0 0 0 0 0 0.1 0"/>
<feBlend mode="normal" in2="BackgroundImageFix" result="effect1_dropShadow_20_605"/>
<feColorMatrix in="SourceAlpha" type="matrix" values="0 0 0 0 0 0 0 0 0 0 0 0 0 0 0 0 0 0 127 0" result="hardAlpha"/>
<feMorphology radius="5" operator="dilate" in="SourceAlpha" result="effect2_dropShadow_20_605"/>
<feOffset/>
<feGaussianBlur stdDeviation="5"/>
<feComposite in2="hardAlpha" operator="out"/>
<feColorMatrix type="matrix" values="0 0 0 0 0 0 0 0 0 0 0 0 0 0 0 0 0 0 0.1 0"/>
<feBlend mode="normal" in2="effect1_dropShadow_20_605" result="effect2_dropShadow_20_605"/>
<feColorMatrix in="SourceAlpha" type="matrix" values="0 0 0 0 0 0 0 0 0 0 0 0 0 0 0 0 0 0 127 0" result="hardAlpha"/>
<feMorphology radius="5" operator="dilate" in="SourceAlpha" result="effect3_dropShadow_20_605"/>
<feOffset/>
<feGaussianBlur stdDeviation="5"/>
<feComposite in2="hardAlpha" operator="out"/>
<feColorMatrix type="matrix" values="0 0 0 0 0 0 0 0 0 0 0 0 0 0 0 0 0 0 0.1 0"/>
<feBlend mode="normal" in2="effect2_dropShadow_20_605" result="effect3_dropShadow_20_605"/>
<feBlend mode="normal" in="SourceGraphic" in2="effect3_dropShadow_20_605" result="shape"/>
</filter>
</defs>
</svg>
